<svg xmlns="http://www.w3.org/2000/svg" viewBox="0 0 750 500"><g id="freepik--background-simple--inject-13"><path d="M264,334.81c-10.57-12.47-26.49-21.92-42.76-22.81h0c-12.39-1.35-27.86,1.5-38.41,8.14S164.57,338.53,164.56,351s8.64,24.93,20.79,27.71c9.6,2.2,20.91-1.12,28.66,5,7.16,5.6,7.47,16.42,12.94,23.68,6.51,8.65,19.71,10.35,29.43,5.57s16.09-14.72,19.05-25.14A58.71,58.71,0,0,0,264,334.81Z" style="fill:#f5f5f5"></path><circle cx="498.71" cy="364.09" r="30.01" transform="translate(-89.76 177.07) rotate(-18.5)" style="fill:#f5f5f5"></circle><path d="M404.46,47.49c-14.6-9.22-20.87-10.89-38-13.2-15.07-1.21-30.23.38-44.14,6.3S296.52,58.9,294.72,73.91s9.11,31.44,24.18,32.57c12.78,1,24.84-8.3,37.55-6.68,14.11,1.79,23.67,16.2,37.51,19.46,16.81,3.95,33.88-11.82,35.13-29S419.06,56.72,404.46,47.49Z" style="fill:#f5f5f5"></path></g><g id="freepik--Plant--inject-13"><path d="M201,443c-1.75,2.58-5.24,1.77-6.87.23s-2.34-3.79-3-5.94c-1.48-4.9-3-10-2-15.08a8.46,8.46,0,0,1,1.88-4.13,4.4,4.4,0,0,1,4.14-1.43c1.75.45,2.86,2.15,3.67,3.77a36,36,0,0,1,3.74,15.41A12.46,12.46,0,0,1,201,443" style="fill:#FF6134"></path><g style="opacity:0.2"><path d="M201,443c-1.75,2.58-5.24,1.77-6.87.23s-2.34-3.79-3-5.94c-1.48-4.9-3-10-2-15.08a8.46,8.46,0,0,1,1.88-4.13,4.4,4.4,0,0,1,4.14-1.43c1.75.45,2.86,2.15,3.67,3.77a36,36,0,0,1,3.74,15.41A12.46,12.46,0,0,1,201,443"></path></g><path d="M194.43,456A15.51,15.51,0,0,0,184.8,455a8,8,0,0,0-4.73,2.18c-1.17,1.32-1.37,3.63,0,4.74a4.58,4.58,0,0,0,3,.73c2.54-.06,5.36-.54,7.41,1,1.17.86,1.95,2.3,3.34,2.71a3.28,3.28,0,0,0,3.59-1.64,5.63,5.63,0,0,0,.36-4.14A6.3,6.3,0,0,0,194.43,456Z" style="fill:#FF6134"></path><path d="M205.93,446.6a9.3,9.3,0,0,1-1.55-8.54,16.54,16.54,0,0,1,5-7.4,27.12,27.12,0,0,1,9-5.46,9.57,9.57,0,0,1,4.07-.74,4.25,4.25,0,0,1,3.45,2c1,1.81.09,4-.88,5.84a69.17,69.17,0,0,1-5.85,9.14c-1.76,2.33-3.78,4.62-6.49,5.69s-5.54,1-7-.88" style="fill:#FF6134"></path><path d="M201.55,481.52a5.26,5.26,0,0,1-.18-1.16c-.09-.84-.21-1.9-.34-3.16s-.38-2.91-.77-4.64a36.12,36.12,0,0,0-1.75-5.46,20.4,20.4,0,0,0-2.86-4.93,10.42,10.42,0,0,0-3.58-2.9,10,10,0,0,0-3-.9,5.45,5.45,0,0,1-1.16-.15,6,6,0,0,1,1.18,0,9.11,9.11,0,0,1,3.12.77,10.46,10.46,0,0,1,3.77,2.93,19.8,19.8,0,0,1,3,5,33,33,0,0,1,1.74,5.56,39.18,39.18,0,0,1,.67,4.7c.12,1.34.17,2.43.2,3.18A6.24,6.24,0,0,1,201.55,481.52Z" style="fill:#263238"></path><path d="M201.3,479.09a2.1,2.1,0,0,1,0-.54c0-.4,0-.91,0-1.54,0-1.34,0-3.27-.14-5.66-.17-4.77-.66-11.36-1.54-18.6s-2-13.75-3-18.42c-.24-1.17-.49-2.22-.71-3.14s-.41-1.72-.58-2.37-.28-1.1-.38-1.49a2.1,2.1,0,0,1-.1-.53,2.64,2.64,0,0,1,.19.5c.12.39.28.87.46,1.47s.42,1.43.67,2.35.51,2,.78,3.14a175,175,0,0,1,3.19,18.43c.88,7.25,1.32,13.86,1.4,18.65.06,2.4,0,4.33,0,5.67,0,.63-.06,1.14-.08,1.54A1.88,1.88,0,0,1,201.3,479.09Z" style="fill:#263238"></path><path d="M201.12,466.33a11.73,11.73,0,0,1,0-1.61c0-1,.17-2.53.44-4.36A58.6,58.6,0,0,1,202.9,454a56,56,0,0,1,2.56-7.54,40.33,40.33,0,0,1,7.66-12.24,19.93,19.93,0,0,1,1.81-1.72c.28-.25.53-.49.78-.68l.71-.5a10.5,10.5,0,0,1,1.34-.88,47.92,47.92,0,0,0-4.39,4,42.24,42.24,0,0,0-7.46,12.19,60.23,60.23,0,0,0-2.59,7.48c-.67,2.34-1.1,4.49-1.43,6.3s-.49,3.3-.59,4.33A11.65,11.65,0,0,1,201.12,466.33Z" style="fill:#263238"></path></g><g id="freepik--character-4--inject-13"><circle cx="628.48" cy="382.3" r="77.28" transform="translate(-86.25 556.38) rotate(-45)" style="fill:#ebebeb"></circle><path d="M628.48,460.09a77.79,77.79,0,1,1,77.78-77.79A77.87,77.87,0,0,1,628.48,460.09Zm0-154.57a76.79,76.79,0,1,0,76.78,76.78A76.86,76.86,0,0,0,628.48,305.52Z" style="fill:#263238"></path><path d="M607.4,344l9.87-3.5,27.46-2.32,13.49,7.44s-24.51,38-25.45,38S607.4,344,607.4,344Z" style="fill:#a36957"></path><path d="M669,390.69l8.75-34.31-24.61-13.55-23.75,36.62-21.52-35.61-22.17,10a6.63,6.63,0,0,0-3.3,3.28l-20,54.23,27.1,8.75,3.1-12.57,3.57,21.71-2,21.65a76.71,76.71,0,0,0,68.35.33l-3.8-23.82,2.17-13Z" style="fill:#FF6134"></path><rect x="641.36" y="385.51" width="18.31" height="3.03" style="fill:#263238"></rect><path d="M660.92,422.53c7.39,2.64,15.51,2.24,23.26,1.1a10.8,10.8,0,0,0,5.23-1.79c.48-.4,1.65-1.39,1.64-1.62-.06-.7-1.34-1.65-2.09-2.23a24.94,24.94,0,0,0-20.1-4.71,14.88,14.88,0,0,0-5.26,2.05c-1.57,1.05-2.56,1.63-3.1,3.44" style="fill:#FF6134"></path><g style="opacity:0.30000000000000004"><path d="M660.92,422.53c7.39,2.64,15.51,2.24,23.26,1.1a10.8,10.8,0,0,0,5.23-1.79c.48-.4,1.65-1.39,1.64-1.62-.06-.7-1.34-1.65-2.09-2.23a24.94,24.94,0,0,0-20.1-4.71,14.88,14.88,0,0,0-5.26,2.05c-1.57,1.05-2.56,1.63-3.1,3.44"></path></g><path d="M691.05,420.22s-7.78-46.37-8.26-50.5c-1.2-10.26-5.07-13.54-5.07-13.54l-18,55.23,1.24,11.12S666.63,414,691.05,420.22Z" style="fill:#FF6134"></path><path d="M681.1,383a8.2,8.2,0,0,1-.34,1.15c-.23.74-.61,1.79-1.12,3.07a70.22,70.22,0,0,1-4.73,9.66,65.71,65.71,0,0,1-6.2,8.79c-.88,1.06-1.62,1.89-2.16,2.45a9.27,9.27,0,0,1-.85.84,7.29,7.29,0,0,1,.75-.94c.5-.58,1.22-1.43,2.07-2.5a78.42,78.42,0,0,0,6.09-8.82,81.75,81.75,0,0,0,4.8-9.58c.54-1.26,1-2.29,1.22-3A7.46,7.46,0,0,1,681.1,383Z" style="fill:#263238"></path><path d="M596,428.17s0-.06,0-.16l-.08-.45c-.07-.42-.16-1-.27-1.72-.26-1.53-.62-3.69-1.07-6.35-.92-5.35-2.25-12.74-3.74-20.9S588,383.07,587,377.7c-.46-2.66-.84-4.82-1.11-6.35-.11-.72-.2-1.3-.27-1.73,0-.18,0-.33-.05-.45s0-.15,0-.15a1,1,0,0,1,0,.15l.08.44c.09.43.2,1,.34,1.72.29,1.52.71,3.68,1.22,6.32,1,5.34,2.41,12.72,3.9,20.88s2.79,15.55,3.65,20.92c.43,2.68.75,4.86,1,6.37q.13,1.1.21,1.74c0,.18,0,.33,0,.45S596,428.16,596,428.17Z" style="fill:#263238"></path><path d="M670.31,372.27a2.92,2.92,0,0,1-.1.52c-.08.37-.19.86-.33,1.48-.3,1.31-.73,3.16-1.26,5.42-1.07,4.58-2.55,10.91-4.13,17.91s-2.93,13.36-3.84,18c-.45,2.3-.81,4.17-1,5.47-.11.62-.2,1.12-.27,1.49a4,4,0,0,1-.12.52,3.93,3.93,0,0,1,0-.53c.05-.38.12-.88.2-1.5.18-1.31.51-3.18.92-5.5.85-4.63,2.17-11,3.75-18s3.1-13.33,4.23-17.89c.57-2.26,1-4.09,1.37-5.41.16-.61.3-1.09.39-1.46A2.1,2.1,0,0,1,670.31,372.27Z" style="fill:#263238"></path><path d="M602.15,346.22a1.07,1.07,0,0,1,.15.21l.42.64c.37.59.89,1.43,1.57,2.5l5.73,9.21L628.9,389.4h-.29l.9-1.26,2.79-3.94v.19l-17.44-28.91-5.17-8.65-1.39-2.35-.35-.61a1.18,1.18,0,0,1-.11-.22,1.72,1.72,0,0,1,.14.2c.09.15.22.34.38.59l1.44,2.32c1.24,2,3,5,5.26,8.59L632.6,384.2l.06.1-.07.09-2.8,3.94-.89,1.26-.16.22-.14-.23-18.79-30.67-5.64-9.27-1.51-2.53-.39-.66A1.61,1.61,0,0,1,602.15,346.22Z" style="fill:#263238"></path><path d="M653.11,342.63s0,.07-.1.2l-.34.55-1.34,2.12-5,7.79-16.83,26v-.18l2.33,3.81.76,1.23h-.3c3.6-5.38,6.93-10.56,10-15.26s5.82-8.88,8.23-12.33,4.44-6.2,5.86-8.07l1.65-2.14.44-.55c.1-.13.15-.19.16-.18l-.13.2c-.11.14-.24.33-.41.57l-1.6,2.18c-1.39,1.9-3.38,4.65-5.77,8.13s-5.14,7.66-8.16,12.37-6.34,9.89-9.95,15.28l-.15.23-.14-.24-.76-1.23-2.33-3.81-.06-.1.06-.09c6.69-10.26,12.64-19.4,16.93-26l5.08-7.73,1.39-2.09c.15-.22.27-.4.37-.53Z" style="fill:#263238"></path><path d="M606.1,407.55a5.91,5.91,0,0,0-7.48,2.53,6.17,6.17,0,0,0,.81,6.76c1.61,1.7,5.48,2.86,7.28.81Z" style="fill:#ebebeb"></path><path d="M606.1,407.55a3,3,0,0,1,.09.71l.17,2.06c.13,1.84.3,4.36.51,7.32v.06l0,.05a3.81,3.81,0,0,1-3.15,1.15,7.06,7.06,0,0,1-3.45-1.18,5.16,5.16,0,0,1-2.09-2.77,6.56,6.56,0,0,1-.23-3.24,5.4,5.4,0,0,1,1.25-2.66,6,6,0,0,1,2.05-1.53,5.8,5.8,0,0,1,3.63-.43,4,4,0,0,1,1.26.46s-.44-.17-1.29-.32a5.78,5.78,0,0,0-3.49.52,5.4,5.4,0,0,0-3.09,4,6.51,6.51,0,0,0,.23,3.08,4.89,4.89,0,0,0,2,2.59,6.8,6.8,0,0,0,3.27,1.13,3.53,3.53,0,0,0,2.89-1l0,.12c-.15-2.93-.27-5.43-.36-7.26,0-.85-.07-1.55-.09-2.09A7.47,7.47,0,0,1,606.1,407.55Z" style="fill:#263238"></path><path d="M602.39,407.11s1.92-39.64,2.91-45.32,3.54-14.88,7.56-20.43c3.84-5.31,4.22-5.68,4.22-5.68l-.26,4.95a69.46,69.46,0,0,0-7.71,20.56c-2.13,11.23-3.6,45.92-3.6,45.92Z" style="fill:#263238"></path><path d="M655.72,414.64a8.65,8.65,0,0,1-3.27-.67l.5-1.25a6.76,6.76,0,0,0,4.37.35,5,5,0,0,0,3.2-2.9,7.45,7.45,0,0,0,.07-4.23,25.34,25.34,0,0,0-1-3c-.17-.44-.34-.88-.5-1.33-2.83-8-2.34-16.89-1.91-24.76l1.34.07c-.42,7.75-.9,16.53,1.84,24.24.16.44.32.87.49,1.3a26.19,26.19,0,0,1,1.06,3.17,8.49,8.49,0,0,1-.12,5,6.25,6.25,0,0,1-4.08,3.71A6.87,6.87,0,0,1,655.72,414.64Z" style="fill:#e0e0e0"></path><path d="M655.6,415.24a7.52,7.52,0,0,1-5.94-3.18c-2.23-2.74-2.58-9.54-2.9-15.54-.11-2.14-.21-4.17-.4-5.63-.67-5.19-3.64-12.14-3.67-12.21l1.24-.54c.13.29,3.08,7.2,3.77,12.57.19,1.52.3,3.57.41,5.74.29,5.51.65,12.36,2.59,14.76,2.94,3.62,6.51,3.59,11.58-.11l.79,1.09C660.29,414.22,657.81,415.24,655.6,415.24Z" style="fill:#ebebeb"></path><path d="M660.35,412.27a8.24,8.24,0,0,1,1-1.95,2.73,2.73,0,0,1,1.75-1.1,1.7,1.7,0,0,1,1.73.95,2,2,0,0,1-.32,2,2.73,2.73,0,0,1-1.71,1,7.64,7.64,0,0,1-2,0" style="fill:#263238"></path><path d="M646.88,353.45A43.74,43.74,0,0,1,656,377h2.81a44.08,44.08,0,0,0-10.95-26.56,42.6,42.6,0,0,0,1.55-6.87c.62-5.27-5-8.46-5-8.46l-.15,4a4.67,4.67,0,0,1,2.36,4.15c-.13,2.84-2.26,8.88-4.35,14.09a31.3,31.3,0,0,0-2.3,13.5c.2,5.91,2.5,8.59,2.5,8.59l2.79-1.18s-1.67-2.09-2.39-7.79c-.55-4.36.74-7.77,1.86-10.92C645.27,358,646.08,355.81,646.88,353.45Z" style="fill:#263238"></path><path d="M566.79,412.69l-3.38,12.87a12.22,12.22,0,0,0,3,11.73c.18.18.36.36.56.53h0a12.71,12.71,0,0,0,13.18,2.34l35-13.88-5.16-15.76-26.46,7.54Z" style="fill:#a36957"></path><path d="M595.49,391.24,601.82,425a3,3,0,0,0,3.09,2.46l48.42-1.85a3,3,0,0,0,2.9-3.12l-1.1-31.88a3,3,0,0,0-3-2.92H598.46A3,3,0,0,0,595.49,391.24Z" style="fill:#455a64"></path><path d="M648.39,405h0a4.48,4.48,0,0,0-4.2,2.87c-.7,1.82-1.73,3.95-2.87,4.57-2.1,1.15-5.72,2.06-7.63,1.13s-9.54-7.81-10.88-7.05-2.48,2.49-1.14,4,8.39,6.11,7.06,7.64-16.22-5.2-18.51-4.6-3.63,2-2.29,2.91,11.45,4.74,12,6.08c0,0-15.27-4-15.84-3.06s-1.53,2.48,0,3.06,14.69,4,15.84,4.58a27.78,27.78,0,0,0,5.88,1.71,62.21,62.21,0,0,1,6.15,1.95,13.51,13.51,0,0,0,9.5-.25l1.55-.63a6.07,6.07,0,0,0,3.76-6l-.31-5.2,1.66-4.3Z" style="fill:#a36957"></path><path d="M636.15,431.53S664,456.74,673.4,456.82c9.88.07,15.45-10.19,14.4-16.56-.57-3.4-2-21.19-2-21.19-6.62-1.81-16.52-2.62-23.57,2.08l2.57,10.38-18.6-9Z" style="fill:#a36957"></path><path d="M691.05,420.22s-.12,0-.33-.05l-.89-.21c-.78-.19-1.91-.47-3.31-.79a46.38,46.38,0,0,0-11.07-1.28,38.64,38.64,0,0,0-6.09.69,22,22,0,0,0-4.8,1.41,12.26,12.26,0,0,0-2.86,1.76c-.6.52-.89.86-.92.84a1.25,1.25,0,0,1,.19-.27,8.51,8.51,0,0,1,.64-.67,11.07,11.07,0,0,1,2.85-1.88,21,21,0,0,1,4.83-1.51,35.9,35.9,0,0,1,6.16-.72,42.71,42.71,0,0,1,11.13,1.39c1.39.35,2.51.67,3.28.9l.88.27A1.77,1.77,0,0,1,691.05,420.22Z" style="fill:#263238"></path><path d="M643.27,280.86a4.75,4.75,0,0,1,4.23,4.82h0l-2.82,57.86c-.12,7.55-11.16,11.79-19.25,11.61h0c-8.17-1.93-8.47-6.83-8.57-14-.17-12-.12-7.79-.12-7.72s-10.32-1.74-12.42-15.2c-1.05-6.7-.69-17.68-.11-26.65.53-8.08,5.9-18,13.95-17.1Z" style="fill:#a36957"></path><path d="M608.92,301.24a1.74,1.74,0,0,0,1.66,1.75,1.66,1.66,0,0,0,1.79-1.56,1.72,1.72,0,0,0-1.66-1.74A1.66,1.66,0,0,0,608.92,301.24Z" style="fill:#263238"></path><path d="M606.58,297.76c.22.22,1.53-.74,3.38-.74s3.22,1,3.42.72-.12-.51-.71-.94a4.75,4.75,0,0,0-2.73-.85,4.57,4.57,0,0,0-2.7.86C606.67,297.25,606.48,297.65,606.58,297.76Z" style="fill:#263238"></path><path d="M626.69,302a1.73,1.73,0,0,0,1.66,1.75,1.65,1.65,0,0,0,1.78-1.55,1.73,1.73,0,0,0-1.66-1.75A1.65,1.65,0,0,0,626.69,302Z" style="fill:#263238"></path><path d="M625,297.76c.21.22,1.53-.74,3.38-.73s3.22.94,3.42.71-.11-.51-.71-.94a4.76,4.76,0,0,0-2.74-.85,4.57,4.57,0,0,0-2.69.86C625.1,297.25,624.9,297.65,625,297.76Z" style="fill:#263238"></path><path d="M618.07,311.43a11.81,11.81,0,0,0-3-.55c-.47-.05-.92-.15-1-.47a2.43,2.43,0,0,1,.32-1.41l1.41-3.61c2-5.14,3.38-9.36,3.17-9.44s-2,4-3.92,9.16l-1.35,3.64a2.73,2.73,0,0,0-.25,1.86,1.16,1.16,0,0,0,.78.69,3.17,3.17,0,0,0,.8.12A12.77,12.77,0,0,0,618.07,311.43Z" style="fill:#263238"></path><path d="M616.74,333.41a34.3,34.3,0,0,0,18-4.77s-4.57,9.49-18,8.2Z" style="fill:#7c3b29"></path><path d="M618.37,315.94a5,5,0,0,1,3.57-2.36,2.14,2.14,0,0,1,2.09,1.17,3.33,3.33,0,0,1-.3,3.09,2.84,2.84,0,0,1-2.81,1.36,4.73,4.73,0,0,1-2.33-1.51,1.63,1.63,0,0,1-.47-.67,1.14,1.14,0,0,1,.15-1" style="fill:#7c3b29"></path><path d="M623.54,312.72c-.31,0-.31,2-2,3.43s-3.88,1.2-3.9,1.48.48.4,1.39.42a5,5,0,0,0,3.25-1.12,4.41,4.41,0,0,0,1.58-2.87C623.9,313.21,623.67,312.71,623.54,312.72Z" style="fill:#263238"></path><path d="M624,293.49c.23.48,2.06.06,4.25.11s4,.47,4.25,0c.11-.23-.24-.67-1-1.09a7.35,7.35,0,0,0-6.47-.08C624.21,292.82,623.85,293.26,624,293.49Z" style="fill:#263238"></path><path d="M606.75,294.69c.4.42,2,0,3.9,0s3.54.27,3.91-.17c.16-.21-.1-.63-.8-1a6.44,6.44,0,0,0-3.18-.69,6.27,6.27,0,0,0-3.12.86C606.79,294.05,606.57,294.49,606.75,294.69Z" style="fill:#263238"></path><path d="M652.82,326.29a.67.67,0,0,1-.23,0,6.4,6.4,0,0,1-.65-.18,6.16,6.16,0,0,1-2.16-1.22,3.92,3.92,0,0,1-1.31-3.38,2.58,2.58,0,0,1,1.16-1.89,1.27,1.27,0,0,1,1.24,0,1,1,0,0,1,.56,1.16.94.94,0,0,1-.45.53,1.44,1.44,0,0,1-.63.16,2.85,2.85,0,0,1-1.17-.24,5.36,5.36,0,0,1-1.84-1.21,5.28,5.28,0,0,1-1.54-3.32,5.36,5.36,0,0,1,.38-2.44,5.17,5.17,0,0,1,.31-.6c.09-.13.14-.2.15-.19s-.15.29-.34.83a5.57,5.57,0,0,0-.27,2.38,5.07,5.07,0,0,0,1.52,3.13,5.13,5.13,0,0,0,1.75,1.13,2.51,2.51,0,0,0,1,.21.77.77,0,0,0,.78-.47.71.71,0,0,0-.4-.78,1,1,0,0,0-.94.05,2.31,2.31,0,0,0-1,1.65,3.48,3.48,0,0,0,.24,1.83,3.8,3.8,0,0,0,.94,1.34,6.54,6.54,0,0,0,2,1.27C652.52,326.18,652.83,326.27,652.82,326.29Z" style="fill:#263238"></path><path d="M620.17,266.56a4.1,4.1,0,0,1-1.48-5.1c-.56-.79.11-2,1-2.31a4.8,4.8,0,0,1,2.87.19c-.25-.45.42-.83.94-.92l3.56-.57a5.5,5.5,0,0,1-3.73-3.16,8.61,8.61,0,0,1-.51-5,1.83,1.83,0,0,1,.63-1.27,13.48,13.48,0,0,1,2.49,4.17,3.52,3.52,0,0,1,2.55,1.28,1,1,0,0,1,1.46-.39c.75-2.11,2.18-4.33,4.4-4.58-.7-1,.56-2.16,1.64-2.69a6.81,6.81,0,0,1,2.48-.87,2.37,2.37,0,0,1,2.27,1,1.44,1.44,0,0,1-.84,2.09,2.45,2.45,0,0,1,.87,2.89,2.42,2.42,0,0,1,2.92-.6,9.35,9.35,0,0,1,4.9-.71,2.2,2.2,0,0,1,1.2.42c.25.21.42.51.68.7a2.59,2.59,0,0,0,1.32.36,5.22,5.22,0,0,1,3,1.08,2.57,2.57,0,0,1,.8,2.87c2.45.79,4.89-2,7.42-1.53a4.91,4.91,0,0,1,3.16,3,8.38,8.38,0,0,1-4,.58,1.7,1.7,0,0,1-1.63,1.3,1,1,0,0,1-.57,1.54,8.84,8.84,0,0,1,4.73.08c2.37.56,5,1.8,5.51,4.17a7.39,7.39,0,0,1,0,2.57c-.15,1.28-.8,3-2.07,2.72-.78-.15-1.18-1-1.6-1.65a6.68,6.68,0,0,0-4.12-3c-.61.58.51,1.33,1,2s.29,1.6.41,2.42c.18,1.25,1.1,2.25,1.65,3.39,1.19,2.46.57,5.37-.08,8-.17.72-1,1.62-1.44,1a2,2,0,0,1,1.51,2,5.88,5.88,0,0,1-.85,2.61c-.18.35-.41.74-.79.83-.56.13-1-.43-1.31-.92l-2.42-4a6,6,0,0,1-.06,2.74c-.39,1.74-1.43,3.52-3.14,4a7,7,0,0,1-3.61-.27" style="fill:#263238"></path><path d="M646.67,308.42c-.52-.22-2.63.64-3,.19-1.76-2.28-2.71-8.8-3.15-11.64s1.34-6,1.07-8.9c-.21-2.29-.64-4.71-2.16-6.45A8.42,8.42,0,0,0,636,279.4,13.45,13.45,0,0,0,623.76,281c-1.45,1-2.81,2.39-4.57,2.56s-3.33-.91-4.84-1.81-3.36-1.7-5-1a4.91,4.91,0,0,0-1.58,1.29c-1.1,1.26-3.35,6.77-3.39,8.95a18.44,18.44,0,0,1,.8-9.77c2.32-5.67,8.55-12.08,18.49-13.7,15.91-2.58,23.37,6.28,26.2,12.61,1.21,2.72,2.22,9.84,1.34,15.33A39.57,39.57,0,0,1,646.67,308.42Z" style="fill:#263238"></path><path d="M650.94,282.39c-.24.07-.89-1.72-2.48-4.27a29.63,29.63,0,0,0-3.14-4.2,18.7,18.7,0,0,0-4.87-4,19.51,19.51,0,0,0-6-1.95,21.75,21.75,0,0,0-5.2-.18c-3,.27-4.76.95-4.86.71s.36-.38,1.16-.75a14.7,14.7,0,0,1,3.55-1.08,19.16,19.16,0,0,1,12.1,1.84,18.35,18.35,0,0,1,5.22,4.42,23.79,23.79,0,0,1,3,4.62C650.85,280.38,651.12,282.34,650.94,282.39Z" style="fill:#FF6134"></path><path d="M635.4,268.56a6.74,6.74,0,0,1-1,.12,20.13,20.13,0,0,0-2.59.43,19.16,19.16,0,0,0-13.07,10.39,20.52,20.52,0,0,0-1,2.43c-.2.58-.3.91-.32.91a.77.77,0,0,1,0-.25c0-.16.08-.4.17-.7a17.76,17.76,0,0,1,.92-2.49,18.61,18.61,0,0,1,13.23-10.51,16.67,16.67,0,0,1,2.63-.34c.31,0,.55,0,.72,0Z" style="fill:#455a64"></path><path d="M639.63,270.48a17.46,17.46,0,0,1-1.86,1,43.23,43.23,0,0,0-4.34,2.68,44.79,44.79,0,0,0-4,3.17,21.18,21.18,0,0,1-1.59,1.41,1.86,1.86,0,0,1,.36-.45c.24-.28.61-.66,1.08-1.12a33.39,33.39,0,0,1,4-3.28,32.82,32.82,0,0,1,4.43-2.61c.59-.29,1.08-.5,1.42-.64A2.38,2.38,0,0,1,639.63,270.48Z" style="fill:#455a64"></path><path d="M648.24,277.63a1.78,1.78,0,0,1,0,.53c0,.34-.12.83-.25,1.43a23.42,23.42,0,0,1-1.48,4.56,24,24,0,0,1-2.34,4.18,14.25,14.25,0,0,1-.89,1.16c-.22.26-.35.4-.37.38a19.73,19.73,0,0,1,1.07-1.66,30.1,30.1,0,0,0,3.79-8.67C648.05,278.36,648.19,277.62,648.24,277.63Z" style="fill:#455a64"></path><path d="M643.8,296.87s.65-.78,1.58-2.12a22.91,22.91,0,0,0,1.47-2.45,24.9,24.9,0,0,0,1.36-3.23,24.62,24.62,0,0,0,.83-3.4,21.68,21.68,0,0,0,.28-2.84c0-1.63-.06-2.64,0-2.65a3.57,3.57,0,0,1,.12.7,13.86,13.86,0,0,1,.11,1.95,18.54,18.54,0,0,1-.22,2.89,20.92,20.92,0,0,1-2.21,6.71,20.67,20.67,0,0,1-1.55,2.45,14.13,14.13,0,0,1-1.25,1.5C644,296.71,643.82,296.89,643.8,296.87Z" style="fill:#455a64"></path><path d="M593,282.75s.25.26.72.7a7,7,0,0,0,2.29,1.47,4.54,4.54,0,0,0,3.85-.23,3.29,3.29,0,0,0,1.43-1.77,2.68,2.68,0,0,0-.24-2.35,1.13,1.13,0,0,0-1-.53.78.78,0,0,0-.76.65,3,3,0,0,0,.53,2.18,3.6,3.6,0,0,0,1.62,1.3,3,3,0,0,0,1.81.13,3.64,3.64,0,0,0,2.19-1.47,8.58,8.58,0,0,0,.47-.89,1,1,0,0,1-.05.26,3.54,3.54,0,0,1-.32.69,3.74,3.74,0,0,1-2.24,1.64,3.29,3.29,0,0,1-2-.11,3.79,3.79,0,0,1-1.77-1.38,3.2,3.2,0,0,1-.59-2.42,1.17,1.17,0,0,1,.35-.63,1.13,1.13,0,0,1,.69-.27,1.49,1.49,0,0,1,1.26.66,3,3,0,0,1,.28,2.65,3.54,3.54,0,0,1-1.58,1.91,4.69,4.69,0,0,1-4.08.19,6.54,6.54,0,0,1-2.29-1.59,6.08,6.08,0,0,1-.5-.57A1,1,0,0,1,593,282.75Z" style="fill:#263238"></path><path d="M674.7,278.78a1.52,1.52,0,0,1-.36.08c-.24,0-.59.09-1,.14a10.47,10.47,0,0,1-3.87-.15,5.79,5.79,0,0,1-2.39-1.24,4,4,0,0,1-1.38-2.75,3.29,3.29,0,0,1,.31-1.68,2.86,2.86,0,0,1,1.23-1.3,3.77,3.77,0,0,1,3.63,0,1.88,1.88,0,0,1,1,1.62,1.86,1.86,0,0,1-1.09,1.51,3.54,3.54,0,0,1-1.77.28,8.89,8.89,0,0,1-1.65-.28,8.57,8.57,0,0,1-6.26-6.73,6.54,6.54,0,0,1-.12-1.05,2.12,2.12,0,0,1,0-.37s0,.51.23,1.39a8.82,8.82,0,0,0,1.6,3.43,8.45,8.45,0,0,0,4.61,3,8.35,8.35,0,0,0,1.6.26,3.26,3.26,0,0,0,1.61-.25,1.37,1.37,0,0,0,0-2.57,3.47,3.47,0,0,0-3.31,0,2.81,2.81,0,0,0-1.4,2.69,3.77,3.77,0,0,0,1.27,2.58,5.65,5.65,0,0,0,2.27,1.21,11.23,11.23,0,0,0,3.8.25l1-.09A1.49,1.49,0,0,1,674.7,278.78Z" style="fill:#263238"></path><path d="M612.47,249.69a5.44,5.44,0,0,0-.35,1.23,4.29,4.29,0,0,0,.93,3.22,4.6,4.6,0,0,0,4.62,1.37,2.9,2.9,0,0,0,2.15-1.79,1.77,1.77,0,0,0-.22-1.43,1.18,1.18,0,0,0-1.28-.53,1.71,1.71,0,0,0-1.11,1,2,2,0,0,0-.05,1.48,5.14,5.14,0,0,0,1.82,2.31,9.23,9.23,0,0,0,4.74,1.85,9.46,9.46,0,0,0,3.45-.31c.79-.23,1.2-.45,1.22-.41l-.29.16a6.71,6.71,0,0,1-.89.37,9.13,9.13,0,0,1-3.51.42,9.38,9.38,0,0,1-4.9-1.85,5.37,5.37,0,0,1-1.94-2.45,2.35,2.35,0,0,1,.06-1.71,2.06,2.06,0,0,1,1.32-1.17,1.51,1.51,0,0,1,1.62.67,2.1,2.1,0,0,1,.27,1.7,2.63,2.63,0,0,1-1,1.33,4.26,4.26,0,0,1-1.42.66,4.8,4.8,0,0,1-4.86-1.52,4.25,4.25,0,0,1-.88-3.38,3.81,3.81,0,0,1,.29-.93C612.4,249.78,612.46,249.68,612.47,249.69Z" style="fill:#263238"></path><path d="M643.37,306.43a4.09,4.09,0,0,1,6-3.47c1.42.82,2.5,2.47,2.37,5.63-.35,8.44-8.75,6.35-8.75,6.1S643.2,309.92,643.37,306.43Z" style="fill:#a36957"></path><path d="M645.68,311.6s.14.11.38.24a1.52,1.52,0,0,0,1.1.07c.91-.29,1.72-1.68,1.82-3.2a4.88,4.88,0,0,0-.33-2.12,1.69,1.69,0,0,0-1-1.17.75.75,0,0,0-.89.37c-.12.23-.07.4-.12.41s-.18-.15-.09-.49a.93.93,0,0,1,.35-.52,1.08,1.08,0,0,1,.82-.18,2,2,0,0,1,1.48,1.37,5,5,0,0,1,.42,2.37c-.13,1.7-1.06,3.26-2.3,3.56a1.57,1.57,0,0,1-1.33-.28C645.68,311.81,645.65,311.62,645.68,311.6Z" style="fill:#7c3b29"></path></g><g id="freepik--character-2--inject-13"><path d="M430.67,207.24a4.44,4.44,0,0,1-2.93,1.26,26.24,26.24,0,0,0-3.2.29,3.63,3.63,0,0,0-2.59,1.9,3.48,3.48,0,0,0,.42,3.38,3.61,3.61,0,0,0,2.87,1.42l5.43-2.25v-6" style="fill:#eb996e"></path><path d="M425.23,192.72c.18.53,0,22.36,0,22.36l-12.49,32.66a2.83,2.83,0,0,0,2.64,3.83H450.3a2.82,2.82,0,0,0,2.55-4L437.4,214.72v-22Z" style="fill:#ebebeb"></path><path d="M425.23,192.72h.19l.59,0,2.34,0,9-.08h.13v.14c0,5.6,0,13.12.07,22l0-.09,10.4,22q1.41,3,2.9,6.14l1.48,3.16.75,1.6a3.06,3.06,0,0,1,.2,1.89,3.1,3.1,0,0,1-2.75,2.41c-1.24,0-2.42,0-3.65,0H416.28c-.38,0-.72,0-1.13,0a3,3,0,0,1-1.14-.31,3.07,3.07,0,0,1-1.43-4c.25-.67.51-1.33.76-2l1.49-3.89c3.94-10.22,7.42-19.27,10.24-26.59v.06c.06-7,.12-12.57.16-16.43s0-5.93,0-5.93,0,.13.06.38,0,.66,0,1.14c0,1,.05,2.48.06,4.41,0,3.84,0,9.43,0,16.43v.06c-2.78,7.33-6.23,16.4-10.12,26.64-.48,1.28-1,2.58-1.48,3.9-.25.66-.5,1.32-.76,2a2.66,2.66,0,0,0-.08,1.94,2.57,2.57,0,0,0,1.28,1.45,4.14,4.14,0,0,0,2,.27h30.63c1.21,0,2.45,0,3.61,0a2.55,2.55,0,0,0,2.12-3.59l-.74-1.59L450.42,243q-1.47-3.14-2.89-6.15l-10.32-22,0,0v-.05c0-8.88.05-16.4.07-22l.14.13-9-.08-2.38,0h-.83Z" style="fill:#263238"></path><path d="M457.08,201.59a5.24,5.24,0,0,1,.68,1.33s6.89,7.89,7.45,10,11,19.09,11,19.09l-14.52,6.64s-5.22-6-5.4-8.3c0,0-7.45.27-8.57-1.42a43.43,43.43,0,0,1-2.23-4,6.73,6.73,0,0,1-2.79-1,19.93,19.93,0,0,1-3-3.95s-3-.62-3.54-1.55-2.05-4.26-2.05-4.26-4.65,4.77-6.33,4.26-5-3-1.67-6.13l9.83-9.1a5.75,5.75,0,0,1,2.62-1.41l12.14-2.82A6,6,0,0,1,457.08,201.59Z" style="fill:#ffbe9d"></path><path d="M434.11,214.13c0-.06.74-.75,1.88-2l2-2.21c.38-.42.78-.86,1.22-1.3a8.81,8.81,0,0,1,.7-.65,2.64,2.64,0,0,1,.42-.3,3.45,3.45,0,0,1,.5-.2c2.48-.77,4.73-1.45,6.37-1.91a15,15,0,0,1,2.68-.65,13.94,13.94,0,0,1-2.57,1c-1.61.55-3.84,1.28-6.32,2.06a3.45,3.45,0,0,0-1.42,1c-.43.43-.84.86-1.22,1.26-.77.82-1.47,1.55-2.09,2.15A8.82,8.82,0,0,1,434.11,214.13Z" style="fill:#eb996e"></path><path d="M440.43,220.7a1.63,1.63,0,0,1-.28-.68,4.81,4.81,0,0,1,0-2,4.57,4.57,0,0,1,1.45-2.64,9.27,9.27,0,0,1,3.25-1.67,48.71,48.71,0,0,1,6.3-1.72,11.47,11.47,0,0,1,2.68-.38,18,18,0,0,1-2.6.74c-1.61.42-3.82,1-6.21,1.85a9.43,9.43,0,0,0-3.11,1.54,4.37,4.37,0,0,0-1.4,2.35A7.47,7.47,0,0,0,440.43,220.7Z" style="fill:#eb996e"></path><path d="M445.76,225.35a2.18,2.18,0,0,1,.14-2,4.13,4.13,0,0,1,1.5-1.68,8.74,8.74,0,0,1,2.49-1.06,42.93,42.93,0,0,1,6.6-1.65A45.87,45.87,0,0,1,450,221.1a9.69,9.69,0,0,0-2.37,1,4.1,4.1,0,0,0-1.43,1.45A4.3,4.3,0,0,0,445.76,225.35Z" style="fill:#eb996e"></path><path d="M454.17,230.24a15.51,15.51,0,0,1,3.44.16,15.2,15.2,0,0,1,3.43.4,9.23,9.23,0,0,1-3.47.12A9.56,9.56,0,0,1,454.17,230.24Z" style="fill:#eb996e"></path><path d="M423.26,225l-8.39,22.27a1.68,1.68,0,0,0,1.6,2.28l32.29-.34a1.69,1.69,0,0,0,1.52-2.39L440.43,225Z" style="fill:#FF6134"></path><path d="M402.21,393.71l-4-22,.55-4.85-1.49-.25-13.32-72.47L352.5,253.66l-26.64-32.72-5.28,13s-26.82,23.16-29.34,26.73c0,0,0,0,0,0s-7.26,10.7-8.37,22c-.44,4.43,10.56,87.28,11.8,91,.93,2.8,9.43,8.77,15.43,12.35-.79,24.54-3,96-1.84,96l103.66-.26Z" style="fill:#ebebeb"></path><path d="M387.56,277.46s-4-19.33-3.68-19.93-9-23.43-9-23.43-3.14-10.45-3.14-10.41-42.7-7.22-42.7-7.22l-2.08,6.45,56.95,72,5.83,30.88,6-8.42Z" style="fill:#FF6134"></path><path d="M425.66,422.89l-9.27-111.45L408.79,268c-1-8.67-14.36-25.8-14.36-25.8l-14.7-4.45s-6-7.41-6.35-8.49L383.88,256l3.68,21.43,2.29,49.15h0l12.12,66,10,89.41,26.55-.18Z" style="fill:#ebebeb"></path><polygon points="390.76 293.06 395.74 256.5 379.73 237.71 373.38 229.22 383.22 257.53 390.76 293.06" style="fill:#ebebeb"></polygon><path d="M393.34,270.85c-.11,0,.73,3.59,1.87,8s2.15,7.89,2.25,7.86a80.42,80.42,0,0,0-1.86-8C394.46,274.34,393.45,270.83,393.34,270.85Z" style="fill:#263238"></path><path d="M406.19,295.56a8.44,8.44,0,0,1-.6,4.64,5.72,5.72,0,0,1-3.48,3.2,6.38,6.38,0,0,1-6.15-1.31c-2.44-2.3-4.36-7.9-3.85-11.63.34-2.57,1.92-5.29,4.41-6a6.38,6.38,0,0,1,7.28,3.13" style="fill:#e0e0e0"></path><path d="M403.8,287.59a5,5,0,0,0-1-1.46,6.67,6.67,0,0,0-1.65-1.29,5.91,5.91,0,0,0-2.69-.76,6.12,6.12,0,0,0-1.63.15,5,5,0,0,0-1.66.68,6.92,6.92,0,0,0-2.48,3,9.09,9.09,0,0,0-.82,4.21,16.84,16.84,0,0,0,.82,4.53,12.7,12.7,0,0,0,3.59,6,6,6,0,0,0,3,1.22,7,7,0,0,0,2.94-.26h0a4.35,4.35,0,0,0,1.88-1,6.64,6.64,0,0,0,1.24-1.45,7.71,7.71,0,0,0,1-2.89,7.33,7.33,0,0,0,.05-1.95,3,3,0,0,0-.08-.51c0-.11,0-.17-.05-.17a10.53,10.53,0,0,1-.1,2.6,8.17,8.17,0,0,1-1,2.78,7,7,0,0,1-1.21,1.37,4.13,4.13,0,0,1-1.76.92h0a6.18,6.18,0,0,1-5.56-1A12.41,12.41,0,0,1,393,296.5c-.93-2.92-1.21-6,0-8.45a6.54,6.54,0,0,1,2.33-2.86,4.41,4.41,0,0,1,1.54-.65,5.6,5.6,0,0,1,1.55-.18A5.82,5.82,0,0,1,401,285a7.27,7.27,0,0,1,1.65,1.21A15.18,15.18,0,0,1,403.8,287.59Z" style="fill:#263238"></path><path d="M408,295.25a8.44,8.44,0,0,1-.6,4.64,5.72,5.72,0,0,1-3.48,3.2,6.38,6.38,0,0,1-6.15-1.31c-2.44-2.3-4.36-7.9-3.85-11.63.34-2.57,1.92-5.29,4.41-6a6.39,6.39,0,0,1,7.28,3.13" style="fill:#e0e0e0"></path><path d="M405.59,287.28a4.92,4.92,0,0,0-1-1.45,6.68,6.68,0,0,0-1.65-1.3,5.91,5.91,0,0,0-2.69-.76,5.75,5.75,0,0,0-1.63.16,4.67,4.67,0,0,0-1.65.67,6.9,6.9,0,0,0-2.49,3,9,9,0,0,0-.82,4.21,16.77,16.77,0,0,0,.82,4.52,12.7,12.7,0,0,0,3.59,6,6,6,0,0,0,3,1.22,7,7,0,0,0,2.93-.26h0a4.35,4.35,0,0,0,1.88-1,6.64,6.64,0,0,0,1.24-1.45,7.71,7.71,0,0,0,1-2.89,7.33,7.33,0,0,0,.05-1.95,3.44,3.44,0,0,0-.08-.51c0-.11,0-.17,0-.17a10.54,10.54,0,0,1-.1,2.6,7.9,7.9,0,0,1-1.05,2.78,6.69,6.69,0,0,1-1.21,1.37,4.09,4.09,0,0,1-1.76.93h0a6.18,6.18,0,0,1-5.56-.95,12.49,12.49,0,0,1-3.45-5.79c-.93-2.91-1.21-6,0-8.45a6.65,6.65,0,0,1,2.33-2.86,4.61,4.61,0,0,1,1.54-.65,6,6,0,0,1,1.55-.18,5.69,5.69,0,0,1,2.59.68,6.72,6.72,0,0,1,1.65,1.21A12.65,12.65,0,0,1,405.59,287.28Z" style="fill:#263238"></path><path d="M402.49,287.19a4,4,0,0,1,4.62,1.27,6.85,6.85,0,0,1,1.26,4.89,6.3,6.3,0,0,1-.67,2.52,3.41,3.41,0,0,1-1.95,1.67,4,4,0,0,1-3.56-1,7.21,7.21,0,0,1-2.56-5.47c0-1.38.62-3,1.95-3.35" style="fill:#e0e0e0"></path><path d="M401.58,287.7a.68.68,0,0,0-.3.07,2.21,2.21,0,0,0-.74.49,4.09,4.09,0,0,0-1,3,7.27,7.27,0,0,0,1.65,4.46,6.1,6.1,0,0,0,2.25,1.76,3.33,3.33,0,0,0,3.07-.06,4.15,4.15,0,0,0,1.82-2.48,9,9,0,0,0,.29-2.84,6,6,0,0,0-1.93-4.33,4.12,4.12,0,0,0-3-1,2.64,2.64,0,0,0-.86.22c-.18.09-.27.14-.26.15a6.68,6.68,0,0,1,1.13-.22,4.16,4.16,0,0,1,2.85,1,5.72,5.72,0,0,1,1.73,4.13,8.38,8.38,0,0,1-.29,2.7,3.77,3.77,0,0,1-1.64,2.25,3,3,0,0,1-2.71.05,5.77,5.77,0,0,1-2.12-1.64,7.14,7.14,0,0,1-1.66-4.23,4.06,4.06,0,0,1,.87-2.9A3.13,3.13,0,0,1,401.58,287.7Z" style="fill:#263238"></path><path d="M401.92,300.48c.06,0,.08-.28.26-.64a2.9,2.9,0,0,1,1.06-1.16,7.28,7.28,0,0,1,1.51-.65c.41-.14.66-.24.65-.3s-.28-.05-.72,0a4.49,4.49,0,0,0-1.65.58,2.58,2.58,0,0,0-1.12,1.4C401.78,300.19,401.87,300.48,401.92,300.48Z" style="fill:#263238"></path><path d="M397.86,287.31s.18.24.6.42a3.78,3.78,0,0,0,1.76.28,4,4,0,0,0,1.7-.54c.38-.25.56-.47.53-.51a9.94,9.94,0,0,1-2.26.65A9.76,9.76,0,0,1,397.86,287.31Z" style="fill:#263238"></path><path d="M366.74,314.48c-2.05.58-4.31-.92-6.3-.15a3,3,0,1,0,2.29,5.44c2-.94,2.47-3.82,4.4-5" style="fill:#263238"></path><path d="M350.17,321.75A14.16,14.16,0,0,0,352,321l-.34-.66a8.43,8.43,0,0,1-6.62.81c-2.56-.85-4.76-3.13-6.56-6.78l-.07-.14c-.72-1.45-10.69-31.15-12.52-36.81-2.87-8.84,4.5-12.56,4.82-12.71s7-3.63,13.83,4.82c7.19,8.84,19.77,26.29,20.92,28.44.14.27.33.59.55,1,1.6,2.71,4.92,8.36,2,13.18-3.26,5.37-7.31,5-7.48,5l-.08.73c.19,0,4.67.45,8.19-5.34,3.15-5.2-.33-11.1-2-13.93-.21-.36-.4-.68-.53-.93-1.17-2.17-13.79-19.7-21-28.57s-14.66-5.05-14.74-5a11,11,0,0,0-5.18,13.59c1.51,4.66,11.8,35.38,12.56,36.91l.07.14c1.89,3.83,4.24,6.24,7,7.15A8.46,8.46,0,0,0,350.17,321.75Z" style="fill:#263238"></path><path d="M327.39,283.21a14.32,14.32,0,0,1,.33-3.94,12.4,12.4,0,0,1,5.58-7.44,13.78,13.78,0,0,1,9.19-1.71,16,16,0,0,1,3.78,1.21s-.07-.07-.22-.17-.39-.24-.71-.38a10.7,10.7,0,0,0-2.8-.92,13,13,0,0,0-4.37-.11,13.18,13.18,0,0,0-5.07,1.75,12.43,12.43,0,0,0-3.88,3.7,12.25,12.25,0,0,0-1.76,4,10.07,10.07,0,0,0-.24,2.95,5,5,0,0,0,.11.79A1,1,0,0,0,327.39,283.21Z" style="fill:#263238"></path><polygon points="320.55 233.96 353.95 275.34 383.88 294.13 325.82 220.94 320.55 233.96" style="fill:#ebebeb"></polygon><path d="M322.16,288.06c-.14.06-1.07-1.88-2.58-5a55,55,0,0,0-7-11.39,25,25,0,0,0-10.66-7.63c-3.22-1.11-5.41-1-5.4-1.17a3.64,3.64,0,0,1,1.51-.16,15.13,15.13,0,0,1,4.12.63A23.75,23.75,0,0,1,313.41,271a46.43,46.43,0,0,1,6.85,11.76C321.6,286,322.29,288,322.16,288.06Z" style="fill:#263238"></path><path d="M313.22,357.7c-.22-.13,3-4.07,8.73-6.23s10.73-1.45,10.65-1.2-4.85.06-10.28,2.18S313.44,358,313.22,357.7Z" style="fill:#263238"></path><path d="M319.56,364.18c-.25,0,1.05-4.7,5.14-8.83s8.7-5.58,8.73-5.33-4.12,2.07-8,6.06S319.86,364.32,319.56,364.18Z" style="fill:#263238"></path><path d="M383.88,294.13a17.25,17.25,0,0,1-2.32-1.26l-6.28-3.77-21.59-13.33-.07,0-.06-.06-10-12.4c-9.24-11.45-17.52-21.81-23.25-29.08l-.14-.17.08-.19,4-9.49c.46-1,.83-1.85,1.14-2.54a3.24,3.24,0,0,1,.45-.85,3.15,3.15,0,0,1-.27.93c-.25.7-.57,1.57-.95,2.61-.93,2.4-2.19,5.64-3.72,9.61l-.06-.36c5.9,7.14,14.28,17.42,23.52,28.87l10,12.43-.12-.11c8.57,5.48,16,10.2,21.39,13.65l6.13,4A15.27,15.27,0,0,1,383.88,294.13Z" style="fill:#263238"></path><path d="M388.75,301.9a14.9,14.9,0,0,1,.21-2.69c.24-1.91.55-4.37.93-7.34.83-6.22,2.05-14.86,3.48-24.58l.06.32-2-3.69c-5.11-9.51-9.69-18.15-13-24.43L374.66,232a18.29,18.29,0,0,1-1.28-2.81,17.69,17.69,0,0,1,1.64,2.61l4.11,7.31c3.44,6.18,8.12,14.77,13.23,24.28l2,3.7.08.15,0,.17c-1.46,9.72-2.8,18.34-3.81,24.53-.51,2.95-.93,5.4-1.25,7.3A13.11,13.11,0,0,1,388.75,301.9Z" style="fill:#263238"></path><path d="M327.47,266l1.73-1-1.73,1A102.71,102.71,0,0,1,320,252l-.36-.86c-2-4.93-4.36-10.53-3.38-15.93l0-.14a10.66,10.66,0,0,1,3.68-6l.56-.47h1.66v3.12l.36.44a3.7,3.7,0,0,0-.36.33v.14H322a6.35,6.35,0,0,0-1.79,3.3l0,.12c-.73,4.21,1.33,9.19,3.15,13.58l.36.87a99.68,99.68,0,0,0,7.24,13.46Z" style="fill:#263238"></path><path d="M375.32,436.09A7.23,7.23,0,0,1,374,437.4c-.92.79-2.27,1.9-4,3.24a125.14,125.14,0,0,1-14,9.61,76.47,76.47,0,0,1-8.41,4.14,51.1,51.1,0,0,1-7.29,2.34,33.47,33.47,0,0,1-5.09.87,6.53,6.53,0,0,1-1.89.06c0-.19,2.65-.48,6.79-1.65a58.69,58.69,0,0,0,7.11-2.52,85,85,0,0,0,8.25-4.15c5.69-3.3,10.54-6.79,14.06-9.3S375.23,436,375.32,436.09Z" style="fill:#263238"></path><path d="M378.39,443.93a7.06,7.06,0,0,1-1.08,1.63,40.6,40.6,0,0,1-3.48,4,57.27,57.27,0,0,1-30.65,16.32,40,40,0,0,1-5.29.64,7.28,7.28,0,0,1-2,0c0-.19,2.76-.41,7.11-1.36a63.37,63.37,0,0,0,30.26-16.11C376.52,446,378.25,443.81,378.39,443.93Z" style="fill:#263238"></path><path d="M335.33,467.25c-.28,0-.77-2.44-1.08-5.52s-.33-5.59-.05-5.62.78,2.44,1.09,5.52S335.62,467.22,335.33,467.25Z" style="fill:#263238"></path><path d="M476.19,232s12.26,30.31,13.26,38.09,1.32,15,1.32,15l-14.58,10.18-13-15.55-1.54-41.07Z" style="fill:#ffbe9d"></path><path d="M484.26,238.62s6.12,28.16,6.51,29.24,2.75,9.27,2.75,9.27V292s-.69,12.21-8.32,14.68-35-.42-35-.42-10.74-2.22-13.1-2.68-25.79-9.92-25.79-9.92L393,241.94l9.37,1.49,35.36,20.18s2.89-1.32,4.22-.7S461,268.79,461,268.79s-5.49-27-4.55-26.85S484.26,238.62,484.26,238.62Z" style="fill:#ebebeb"></path><path d="M412.81,481.71a.75.75,0,0,1,0-.24c0-.19,0-.43-.07-.71,0-.67-.1-1.59-.18-2.74-.14-2.39-.38-5.83-.73-10.08s-.85-9.3-1.46-14.91-1.39-11.75-2.24-18.2c-1.72-12.91-3.38-24.58-4.45-33-.54-4.24-1-7.66-1.22-10-.12-1.15-.22-2.06-.29-2.73,0-.29,0-.52-.06-.71a.84.84,0,0,1,0-.25.68.68,0,0,1,.05.24c0,.19.07.42.12.71.09.66.22,1.57.38,2.72.34,2.41.8,5.81,1.38,10,1.17,8.45,2.88,20.11,4.61,33,.85,6.45,1.59,12.61,2.2,18.22s1.05,10.67,1.34,14.93.5,7.71.57,10.09c0,1.16.07,2.08.09,2.75,0,.29,0,.52,0,.72A.64.64,0,0,1,412.81,481.71Z" style="fill:#263238"></path><path d="M305.57,246.84l-.48.46-1.42,1.33-5.56,5.12c-1.2,1.13-2.6,2.34-4,3.76a30.9,30.9,0,0,0-4.06,5.15,51.44,51.44,0,0,0-3.39,6.81,65,65,0,0,0-2.94,8.07,22.48,22.48,0,0,0-.84,4.54,10.63,10.63,0,0,0,.13,2.38c.11.81.23,1.63.34,2.45.45,3.31.93,6.75,1.42,10.34,1,7.17,2,14.89,3.16,23.1,2.24,16.41,4.75,34.76,7.45,54.51l-.1-.16c4,3,8.1,6,12.38,9a59.91,59.91,0,0,0,6.65,4.13l7.63,2.35c10.29,3.21,20.92,6.48,31.83,9.53,6.86,1.9,13.66,3.73,20.42,5.25,3.38.74,6.74,1.46,10.1,2a60,60,0,0,0,10,.93l-.24.23c1.6-14.35,3.14-28.1,4.59-41.05l.2.26-56.16-9.56h-.05l0,0c-3.15-2.87-6.1-5.54-9.09-7.79l-.06,0v-.07c-2.48-15.34-4.44-27.55-5.8-35.93-.65-4.19-1.15-7.42-1.5-9.61s-.5-3.38-.44-3.29c.21,1.28,3,18.28,8.07,48.78l-.07-.11c3,2.26,6,4.92,9.15,7.78l-.09,0,56.17,9.47.22,0,0,.23c-1.43,12.94-3,26.69-4.56,41.05l0,.22h-.22a59.53,59.53,0,0,1-10.12-.93c-3.38-.53-6.75-1.26-10.14-2-6.77-1.51-13.57-3.34-20.44-5.25-10.92-3.05-21.55-6.32-31.84-9.54l-7.69-2.37a60.69,60.69,0,0,1-6.72-4.18c-4.29-3-8.41-6-12.4-9l-.08-.06v-.1L287.5,320.4c-1.11-8.21-2.15-15.94-3.12-23.11Q283.66,291.9,283,287c-.11-.83-.22-1.65-.32-2.45a10.5,10.5,0,0,1-.13-2.44,22.69,22.69,0,0,1,.86-4.6,65.84,65.84,0,0,1,3-8.1,49.29,49.29,0,0,1,3.44-6.82,30.94,30.94,0,0,1,4.11-5.17c1.45-1.43,2.85-2.62,4.06-3.74l5.61-5.06,1.45-1.3C305.39,247,305.57,246.84,305.57,246.84Z" style="fill:#263238"></path><polygon points="365.05 361.16 403.54 306.87 470.9 327.25 419.94 393.15 396.87 388.69 398.99 366.89 365.05 361.16" style="fill:#FF6134"></polygon><path d="M451.22,324.71a1.67,1.67,0,1,1-1.67-1.67A1.66,1.66,0,0,1,451.22,324.71Z" style="fill:#263238"></path><path d="M424.3,317.19a1.67,1.67,0,1,1-1.67-1.66A1.67,1.67,0,0,1,424.3,317.19Z" style="fill:#263238"></path><path d="M398.53,369.1l3.46-.6s1.1-5.26,2.48-6.36,15.23-7.42,18.27-9.07,14.93-7.08,16.42-4.2c1.69,3.26-3.15,5.94-5.77,7.18s-10.12,4.15-8.6,5.95,18.26,1,18.26,1l2.1-2.81s3.69,3.49,3.27,6.53a13.23,13.23,0,0,1-1.65,5h-1.25a3.46,3.46,0,0,1,.14,3.6,33.8,33.8,0,0,1-3.32,4.14s-2,4.14-7.88,5.76c-.69.19-28.34,2.59-28.34,2.59l-9.26.93Z" style="fill:#ffbe9d"></path><path d="M336.25,132.41c-9.65,2.76-17.52,9.49-17.26,19.53.11,4.49,1.44,9.45-1.11,13.16a3.93,3.93,0,0,0,2.58-2.49c1.62,6.37,1.88,15.86,7.21,19.71" style="fill:#263238"></path><path d="M329.43,175.55c-.27-.12-11.14-3.08-10.59,7.95s11.51,8.19,11.52,7.87S329.43,175.55,329.43,175.55Z" style="fill:#ffbe9d"></path><path d="M326.78,187.36s-.19.15-.5.31a2,2,0,0,1-1.44.11c-1.19-.37-2.26-2.17-2.41-4.16a6.22,6.22,0,0,1,.4-2.77,2.2,2.2,0,0,1,1.37-1.55,1,1,0,0,1,1.16.47c.16.3.1.52.16.54s.23-.2.12-.65a1.24,1.24,0,0,0-.47-.67,1.49,1.49,0,0,0-1.08-.23,2.73,2.73,0,0,0-1.92,1.81,6.59,6.59,0,0,0-.51,3.11c.18,2.22,1.42,4.24,3,4.62a2.05,2.05,0,0,0,1.74-.38C326.77,187.63,326.82,187.38,326.78,187.36Z" style="fill:#eb996e"></path><path d="M386.11,196.05c0-7.79-1.45-23.83-2.89-38.34a30.07,30.07,0,0,0-30.48-27.1l-1.56,0c-16.77,1.29-25,16.25-23.28,33L330.25,217l40,21.94L370.12,215S386.21,212.19,386.11,196.05Z" style="fill:#ffbe9d"></path><path d="M370.14,215A37.52,37.52,0,0,1,349,209.39s5.08,11.71,21.15,10Z" style="fill:#eb996e"></path><path d="M379.29,169.74a2.31,2.31,0,0,1-2.18,2.36,2.19,2.19,0,0,1-2.41-2,2.3,2.3,0,0,1,2.17-2.37A2.21,2.21,0,0,1,379.29,169.74Z" style="fill:#263238"></path><path d="M380.12,164.81c-.27.31-2-.95-4.52-.9s-4.28,1.33-4.55,1c-.14-.13.14-.68.93-1.27a6.35,6.35,0,0,1,3.63-1.2,6.07,6.07,0,0,1,3.61,1.1C380,164.14,380.26,164.68,380.12,164.81Z" style="fill:#263238"></path><path d="M356.08,169.74a2.3,2.3,0,0,1-2.18,2.36,2.2,2.2,0,0,1-2.41-2,2.3,2.3,0,0,1,2.18-2.37A2.2,2.2,0,0,1,356.08,169.74Z" style="fill:#263238"></path><path d="M355.4,164.57c-.24.34-2.14-.72-4.6-.4s-4.1,1.78-4.41,1.51c-.15-.12.07-.69.79-1.36a6.32,6.32,0,0,1,3.48-1.59,6.16,6.16,0,0,1,3.71.7C355.2,163.91,355.53,164.42,355.4,164.57Z" style="fill:#263238"></path><path d="M364.87,184.8c0-.14,1.53-.44,4-.8.63-.08,1.23-.21,1.32-.65a3.14,3.14,0,0,0-.45-1.87q-.94-2.28-2-4.78c-2.73-6.82-4.72-12.43-4.44-12.54s2.71,5.33,5.43,12.15l1.89,4.82a3.65,3.65,0,0,1,.37,2.48,1.6,1.6,0,0,1-1,.94,4.2,4.2,0,0,1-1.08.17C366.44,184.9,364.89,184.94,364.87,184.8Z" style="fill:#263238"></path><path d="M357.61,186.65c.4,0,.45,2.66,2.79,4.53s5.2,1.52,5.23,1.89c0,.17-.63.54-1.84.59a6.61,6.61,0,0,1-4.36-1.43,5.78,5.78,0,0,1-2.17-3.8C357.13,187.31,357.42,186.64,357.61,186.65Z" style="fill:#263238"></path><path d="M355.55,153.87c-.24.68-2.72.4-5.62.81s-5.24,1.24-5.64.64c-.18-.29.22-.93,1.16-1.6a9.44,9.44,0,0,1,4.16-1.54,9.33,9.33,0,0,1,4.41.44C355.1,153,355.65,153.55,355.55,153.87Z" style="fill:#263238"></path><path d="M378.86,158.51c-.43.57-2.15,0-4.2,0s-3.79.45-4.2-.13c-.18-.28.08-.85.83-1.4a5.84,5.84,0,0,1,3.4-1,5.72,5.72,0,0,1,3.37,1.07C378.79,157.65,379,158.23,378.86,158.51Z" style="fill:#263238"></path><path d="M364.55,128.89c-5.71-2.24-11.49-1.06-17.55-.17a27.73,27.73,0,0,0-12.91,5.14c-6.14,4.53-9.17,11.74-9.5,19.36A70.88,70.88,0,0,0,327,175l.6-.13c-.37,1.86-.73,3.83-.08,5.61s2.71,3.19,4.45,2.43c2-.89,2.1-3.69,1.91-5.9a159.48,159.48,0,0,1-.09-22.4c.32-5.57,3.5-12.4,7.85-15,7.91-5.27,18.22-1,21.72-.36,5.36-4.59,10.38-1,13.66,3C375.79,136.15,370.25,131.14,364.55,128.89Z" style="fill:#263238"></path><path d="M336.89,139.27a11.18,11.18,0,0,1,14.63.62c1.57,1.58,2.63,3.61,4.27,5.1,3.49,3.15,8.71,3.17,13.4,3a6.42,6.42,0,0,1-3.35-2.87,23.76,23.76,0,0,0,19.24,1.77c-3.33-8.87-11.08-17.4-20.29-19.64s-21.51-1.21-28.54,5.15" style="fill:#263238"></path><path d="M382.9,146.75a1.88,1.88,0,0,1-.52.09c-.35,0-.86.07-1.52.09a20,20,0,0,1-5.56-.74,20.74,20.74,0,0,1-7.39-3.79c-2.47-2-4.51-4.81-6.87-7.48a20.4,20.4,0,0,0-3.83-3.47,12.87,12.87,0,0,0-4.38-1.89,21.09,21.09,0,0,0-8.13,0c-2.31.4-4.15.91-5.42,1.24l-1.47.4a1.93,1.93,0,0,1-.52.1,2.17,2.17,0,0,1,.49-.21c.33-.11.81-.28,1.44-.48a48.85,48.85,0,0,1,5.41-1.41,21,21,0,0,1,8.31-.11,13.21,13.21,0,0,1,4.55,1.94,20.84,20.84,0,0,1,3.94,3.54c2.39,2.71,4.39,5.51,6.79,7.45a20.49,20.49,0,0,0,7.19,3.81,21.31,21.31,0,0,0,5.45.9C382.17,146.77,382.9,146.7,382.9,146.75Z" style="fill:#455a64"></path><path d="M367.38,148.13a1,1,0,0,1-.39,0,8.31,8.31,0,0,1-1.07-.17,13.11,13.11,0,0,1-3.73-1.47,24.94,24.94,0,0,1-4.69-3.62c-1.62-1.55-3.22-3.39-5-5.21a24,24,0,0,0-5.57-4.43,13.19,13.19,0,0,0-5.53-1.59,9.27,9.27,0,0,0-3.84.6c-.86.34-1.29.65-1.32.6s.09-.09.3-.24a5.56,5.56,0,0,1,.94-.55,8.73,8.73,0,0,1,3.93-.78,13.23,13.23,0,0,1,5.74,1.53,23.77,23.77,0,0,1,5.72,4.49c1.8,1.84,3.39,3.69,5,5.23a25.48,25.48,0,0,0,4.55,3.65A16.2,16.2,0,0,0,367.38,148.13Z" style="fill:#455a64"></path><path d="M318.08,162.25a18.45,18.45,0,0,0,3.67-3.53,24.93,24.93,0,0,0,2.76-4.78c.86-1.91,1.61-4.09,2.46-6.37a36.44,36.44,0,0,1,2.87-6.25,17.11,17.11,0,0,1,3.64-4.29,11.21,11.21,0,0,1,3.27-1.92,6.7,6.7,0,0,1,1-.29,1.17,1.17,0,0,1,.35,0,14,14,0,0,0-4.38,2.54,17.35,17.35,0,0,0-3.47,4.26,38.05,38.05,0,0,0-2.79,6.18c-.85,2.27-1.61,4.46-2.51,6.38a22.88,22.88,0,0,1-2.91,4.81,13.82,13.82,0,0,1-2.75,2.62,9.75,9.75,0,0,1-.88.54A1.28,1.28,0,0,1,318.08,162.25Z" style="fill:#455a64"></path><path d="M320.18,166.13c0-.06.5,0,1.38-.23a9.52,9.52,0,0,0,3.42-1.53,13.17,13.17,0,0,0,3.73-4.1,23.49,23.49,0,0,0,2.44-6.41c.6-2.38,1-4.7,1.57-6.78a26.16,26.16,0,0,1,2-5.36,14.25,14.25,0,0,1,2.19-3.17,8.48,8.48,0,0,1,.77-.72c.18-.15.28-.23.29-.21a18.52,18.52,0,0,0-2.92,4.27,27.46,27.46,0,0,0-1.84,5.31c-.52,2.07-.93,4.38-1.53,6.79a23.52,23.52,0,0,1-2.54,6.53,13.3,13.3,0,0,1-3.93,4.16,9,9,0,0,1-3.59,1.42,6.28,6.28,0,0,1-1.05.06C320.31,166.16,320.18,166.15,320.18,166.13Z" style="fill:#455a64"></path></g><g id="freepik--character-1--inject-13"><circle cx="162.02" cy="180.49" r="117.8" style="fill:#fafafa"></circle><path d="M162,298.79a118.31,118.31,0,1,1,118.3-118.3A118.44,118.44,0,0,1,162,298.79Zm0-235.61a117.31,117.31,0,1,0,117.3,117.31A117.44,117.44,0,0,0,162,63.18Z" style="fill:#263238"></path><path d="M163.84,207.86s-11.3,5.81-14.15,11.91c-2.57,5.49-9.1,39.31-9.1,39.31l-8-36.85-25,.46s.31,57.35,2.32,66.72c2.1,9.74,4.42,14.71,18.45,14.76a46.81,46.81,0,0,0,30.86-11.69Z" style="fill:#ebebeb"></path><path d="M253,194.19c-3-3.07-37.59-11.77-37.59-11.77l-10.12-9.62-10.7,40.55-11.84,49.52,1.68,41.3,82.49-1.88S259.22,200.67,253,194.19Z" style="fill:#ebebeb"></path><path d="M172.57,249.57s-4.3-19.14-4.84-19.55-1.43-24.92-1.43-24.92-1.45-10.74-1.44-10.71,35.71-24.06,35.71-24.06l4.52,5-22.33,87.33L184,296l-2.44-7Z" style="fill:#FF6134"></path><path d="M172.57,249.28l-5.45-20.91-1.5-28.58c.15,1.11-2.26,10.28-2.26,10.28l-11.49,10.07s-5.05,21-2.42,29.24l5.15,54.79,39.26-.45Z" style="fill:#ebebeb"></path><polygon points="176.07 264.71 156.56 233.65 164.61 210.03 165.62 199.79 168.32 229.46 176.07 264.71" style="fill:#ebebeb"></polygon><path d="M164.62,245.67a80.84,80.84,0,0,1,1.58,8c.76,4.42,1.29,8,1.18,8s-.81-3.55-1.58-8S164.52,245.69,164.62,245.67Z" style="fill:#263238"></path><path d="M163.13,273.31a8.33,8.33,0,0,0,2.44,3.95,5.67,5.67,0,0,0,4.47,1.47,6.33,6.33,0,0,0,5-3.71c1.26-3.08.7-8.93-1.29-12.11-1.36-2.18-3.9-4-6.45-3.62a6.34,6.34,0,0,0-5.31,5.82" style="fill:#e0e0e0"></path><path d="M162,265.11a5.08,5.08,0,0,1,.33-1.74,6.91,6.91,0,0,1,1-1.85,6,6,0,0,1,2.12-1.79,6.22,6.22,0,0,1,1.54-.53,5,5,0,0,1,1.78-.07,6.93,6.93,0,0,1,3.47,1.69,9,9,0,0,1,2.47,3.47,16.64,16.64,0,0,1,1.11,4.43,12.46,12.46,0,0,1-.81,6.87,5.92,5.92,0,0,1-2.18,2.33,7,7,0,0,1-2.77,1h0a4.28,4.28,0,0,1-2.12-.16,7,7,0,0,1-1.72-.8,7.8,7.8,0,0,1-2.1-2.21,7.45,7.45,0,0,1-.85-1.74c-.06-.22-.11-.38-.13-.5s0-.17,0-.17a10.25,10.25,0,0,0,1.15,2.31,7.77,7.77,0,0,0,2.09,2.08,6.46,6.46,0,0,0,1.66.75,4.09,4.09,0,0,0,2,.12h0a6.19,6.19,0,0,0,4.65-3.15,12.42,12.42,0,0,0,.75-6.65c-.36-3-1.38-6-3.43-7.67a6.67,6.67,0,0,0-3.28-1.64,4.44,4.44,0,0,0-1.67.05,5.63,5.63,0,0,0-1.47.47,5.7,5.7,0,0,0-2.07,1.68,6.61,6.61,0,0,0-1,1.77A12.13,12.13,0,0,0,162,265.11Z" style="fill:#263238"></path><path d="M161.38,273.77a8.33,8.33,0,0,0,2.44,4,5.71,5.71,0,0,0,4.47,1.46,6.33,6.33,0,0,0,5-3.71c1.27-3.07.7-8.93-1.28-12.1-1.37-2.19-3.91-4-6.46-3.62a6.34,6.34,0,0,0-5.31,5.82" style="fill:#e0e0e0"></path><path d="M160.27,265.57a5,5,0,0,1,.33-1.74,7.1,7.1,0,0,1,1-1.86,5.9,5.9,0,0,1,3.66-2.31,4.81,4.81,0,0,1,1.78-.07,6.91,6.91,0,0,1,3.47,1.68,9,9,0,0,1,2.47,3.48,16.85,16.85,0,0,1,1.12,4.43,12.65,12.65,0,0,1-.81,6.87,6,6,0,0,1-2.19,2.33,7,7,0,0,1-2.77,1h0a4.43,4.43,0,0,1-2.13-.15,6.82,6.82,0,0,1-1.72-.81,7.78,7.78,0,0,1-2.1-2.2,7,7,0,0,1-.84-1.75,4.1,4.1,0,0,1-.14-.49c0-.11,0-.17,0-.17a10.32,10.32,0,0,0,1.16,2.31,7.86,7.86,0,0,0,2.08,2.08,7,7,0,0,0,1.66.74,4,4,0,0,0,2,.12h0a6.14,6.14,0,0,0,4.64-3.15,12.4,12.4,0,0,0,.75-6.64c-.36-3-1.38-6-3.43-7.68a6.57,6.57,0,0,0-3.28-1.63,4.45,4.45,0,0,0-1.67,0,5.76,5.76,0,0,0-1.47.48,5.68,5.68,0,0,0-2.07,1.67,7.25,7.25,0,0,0-1,1.77A14.66,14.66,0,0,0,160.27,265.57Z" style="fill:#263238"></path><path d="M163.05,264.21a4,4,0,0,0-3.67,3.05,6.8,6.8,0,0,0,.86,4.94,6.18,6.18,0,0,0,1.65,2,3.38,3.38,0,0,0,2.44.71,4,4,0,0,0,2.81-2.39,7.13,7.13,0,0,0,.07-6c-.57-1.26-1.77-2.44-3.13-2.24" style="fill:#e0e0e0"></path><path d="M164.08,264.3a.82.82,0,0,1,.3-.06,2.29,2.29,0,0,1,.87.14,4.09,4.09,0,0,1,2.18,2.31,7.3,7.3,0,0,1,.33,4.72,6.14,6.14,0,0,1-1.32,2.52,3.34,3.34,0,0,1-2.8,1.2,4.11,4.11,0,0,1-2.66-1.51,8.76,8.76,0,0,1-1.43-2.45,5.94,5.94,0,0,1,0-4.7,4.15,4.15,0,0,1,2.36-2.14,3.08,3.08,0,0,1,.86-.15l.31,0a6.62,6.62,0,0,0-1.12.27,4.11,4.11,0,0,0-2.15,2.11,5.66,5.66,0,0,0,.12,4.45,8.54,8.54,0,0,0,1.37,2.33,3.81,3.81,0,0,0,2.41,1.36,2.93,2.93,0,0,0,2.47-1.07,5.65,5.65,0,0,0,1.25-2.35,7.07,7.07,0,0,0-.23-4.51,4.07,4.07,0,0,0-2-2.28A3.24,3.24,0,0,0,164.08,264.3Z" style="fill:#263238"></path><path d="M169,276c-.06,0-.19-.21-.5-.47a2.75,2.75,0,0,0-1.43-.61,7.23,7.23,0,0,0-1.64,0c-.42,0-.7.05-.71,0s.24-.16.66-.27a4.56,4.56,0,0,1,1.74-.15,2.59,2.59,0,0,1,1.58.8C169,275.69,169.05,276,169,276Z" style="fill:#263238"></path><path d="M167.28,262.42s-.07.29-.37.63a3.73,3.73,0,0,1-1.48,1,3.82,3.82,0,0,1-1.75.21c-.46-.07-.71-.2-.7-.24a10.11,10.11,0,0,0,2.32-.34A9,9,0,0,0,167.28,262.42Z" style="fill:#263238"></path><path d="M206.61,274.26c2.08-.32,3.52-2.6,5.63-2.72a2.93,2.93,0,1,1,.16,5.86c-2.23,0-3.81-2.44-6-2.7" style="fill:#263238"></path><path d="M224.59,274a12.87,12.87,0,0,1-2,.06l0-.73a8.41,8.41,0,0,0,6.33-2c2-1.82,3-4.79,3.16-8.83v-.16c.06-1.6-3.1-32.58-3.76-38.46-1-9.17-9.23-9.52-9.58-9.53s-7.79-.42-10.54,10c-2.89,11-7.11,31.92-7.28,34.34,0,.29-.06.66-.1,1.09-.34,3.11-1,9.58,3.59,12.75,5.15,3.52,8.68,1.54,8.83,1.45l.37.63c-.17.09-4,2.32-9.61-1.48-5-3.41-4.26-10.18-3.91-13.43.05-.42.09-.78.11-1.06.16-2.44,4.4-23.49,7.29-34.47s11.21-10.59,11.29-10.59a11,11,0,0,1,10.27,10.18c.54,4.84,3.82,36.87,3.76,38.57v.15c-.14,4.25-1.28,7.39-3.4,9.34A8.31,8.31,0,0,1,224.59,274Z" style="fill:#263238"></path><path d="M229.4,229.81a13.51,13.51,0,0,0-1.91-3.44,12.36,12.36,0,0,0-8.1-4.44,13.67,13.67,0,0,0-9,2.22,16.94,16.94,0,0,0-2.93,2.64,1,1,0,0,1,.14-.24,7.1,7.1,0,0,1,.48-.63,10.87,10.87,0,0,1,2.16-2,13.44,13.44,0,0,1,3.91-1.89,13.17,13.17,0,0,1,5.31-.49,12.43,12.43,0,0,1,5,1.75,12.11,12.11,0,0,1,3.24,2.91,9.75,9.75,0,0,1,1.42,2.57,5.71,5.71,0,0,1,.23.76A.69.69,0,0,1,229.4,229.81Z" style="fill:#263238"></path><polygon points="215.4 182.41 202.13 233.58 182.74 262.86 205.28 172.78 215.4 182.41" style="fill:#ebebeb"></polygon><path d="M182.74,262.86a15.33,15.33,0,0,0,1.58-2.09l4.14-6,14.08-20.93.05-.06,0-.09c1.25-4.76,2.6-9.95,4-15.33,3.68-14.16,6.92-26.94,9.14-35.87l.05-.21-.15-.14-7.54-6.94-2.06-1.84a3.6,3.6,0,0,0-.77-.59,3.4,3.4,0,0,0,.63.74l1.93,2,7.31,7.17-.1-.34c-2.4,8.88-5.77,21.63-9.44,35.78l-4,15.36.07-.15c-5.53,8.47-10.29,15.78-13.77,21.13L184,260.59A15.21,15.21,0,0,0,182.74,262.86Z" style="fill:#263238"></path><path d="M181.51,271.9a13.21,13.21,0,0,0-1.29-2.35l-3.85-6.27c-3.3-5.29-8-12.61-13.24-20.83l.09.32c.09-1.33.18-2.73.28-4.16.73-10.71,1.33-20.41,1.72-27.43.16-3.37.29-6.17.4-8.33a17.24,17.24,0,0,0,0-3.06,18.19,18.19,0,0,0-.41,3c-.19,2.14-.43,4.94-.73,8.3-.57,7-1.29,16.7-2,27.41-.09,1.43-.19,2.83-.28,4.16v.17l.09.14c5.31,8.21,10.07,15.46,13.52,20.65l4.12,6.09A14.88,14.88,0,0,0,181.51,271.9Z" style="fill:#263238"></path><path d="M213.72,181.6a6.17,6.17,0,0,1,2.8,2.41l.07.1c2.38,3.52,2.56,8.86,2.71,13.59l0,.94a99.94,99.94,0,0,1-1,15.15l4,.49-2-.24,2,.23a103,103,0,0,0,1.06-15.78l0-.93c-.18-5.3-.38-11.31-3.48-15.8l-.08-.12a10.6,10.6,0,0,0-5.8-4h0a3.13,3.13,0,0,0-2.08.36l-.66.38,2.51,3.18" style="fill:#263238"></path><path d="M184.39,304.17a9.21,9.21,0,0,1-.18-1.64c-.09-1-.19-2.58-.29-4.46-.22-3.78-.43-9-.62-14.76s-.34-10.89-.46-14.75c-.05-1.82-.09-3.33-.12-4.47a8.83,8.83,0,0,1,0-1.65,12.45,12.45,0,0,1,.18,1.64c.08,1.05.18,2.58.28,4.46.21,3.78.42,9,.61,14.76s.34,10.89.46,14.75c.05,1.82.1,3.33.13,4.47A9.66,9.66,0,0,1,184.39,304.17Z" style="fill:#263238"></path><path d="M163,281l.86,23.45,91.58-2a16.84,16.84,0,0,0,16.36-18.89c-.71-5.75-1.54-12.42-2.4-19.36-1.35-10.79-3.95-40.55-6.88-57.45a18.27,18.27,0,0,0-16.26-15.2,11.17,11.17,0,0,0-2.67,0c-10.19,1.62-14,11.67-13.65,23.31.29,9.55,1.7,54.75,1.7,54.75Z" style="fill:#ebebeb"></path><path d="M269.47,294.4l-.27.47a10.42,10.42,0,0,1-.9,1.32,14.17,14.17,0,0,1-4.79,3.86,26.28,26.28,0,0,1-9.45,2.57c-3.85.21-8.22.23-13.08.37l-77.13,1.74h-.25v-.25c-.2-5.53-.41-11.35-.62-17.26-.08-2.32-.17-4.61-.25-6.87v-.23l.22,0,68.65-10.57-.18.21c-.64-15-1.16-27.34-1.52-35.91-.17-4.26-.3-7.6-.39-9.88,0-1.12-.07-2-.09-2.59s0-.88,0-.88,0,.3.07.88.08,1.46.14,2.58c.12,2.29.29,5.62.5,9.88.41,8.57,1,20.88,1.71,35.91v.18l-.18,0L163,280.6l.22-.27c.08,2.26.17,4.56.25,6.87.21,5.91.42,11.73.61,17.26l-.26-.25L241,302.65c4.85-.12,9.25-.12,13.06-.3a26.43,26.43,0,0,0,9.39-2.46,14.51,14.51,0,0,0,4.8-3.76,11.67,11.67,0,0,0,.92-1.29A5.06,5.06,0,0,1,269.47,294.4Z" style="fill:#263238"></path><path d="M240,282.23c-.14.07-1.65-3.09-4-6.65-1.2-1.78-2.37-3.35-3.25-4.42a3.67,3.67,0,0,0-1.81-1.23s.23-.08.64,0a3.57,3.57,0,0,1,1.44.94,34.93,34.93,0,0,1,3.41,4.39,41.21,41.21,0,0,1,2.77,4.8A8.87,8.87,0,0,1,240,282.23Z" style="fill:#263238"></path><path d="M249.05,278.55c-.07.06-.83-.79-2.21-2a27.88,27.88,0,0,0-5.92-3.93,28.17,28.17,0,0,0-6.74-2.27c-1.8-.36-2.93-.43-2.93-.52a2.26,2.26,0,0,1,.81,0,15.24,15.24,0,0,1,2.18.2,23.85,23.85,0,0,1,12.85,6.29,16.06,16.06,0,0,1,1.5,1.6C248.91,278.29,249.08,278.53,249.05,278.55Z" style="fill:#263238"></path><path d="M140.79,271.18a48.14,48.14,0,0,1-.4-7,45.57,45.57,0,0,1,.12-7,48.14,48.14,0,0,1,.4,7A47.16,47.16,0,0,1,140.79,271.18Z" style="fill:#263238"></path><path d="M128.26,151.4a7.23,7.23,0,0,1-8.39-8.51c.26-1.28.86-2.51.77-3.81-.17-2.78-3.29-4.49-4.1-7.17-.76-2.47.66-5.09,2.4-7s3.86-3.56,5-5.87c1.07-2.12,1.21-4.6,2.12-6.79a10.4,10.4,0,0,1,7.42-6.08c3.35-.66,7,.36,10.17-.85,2.33-.88,4.08-2.81,6.22-4.08a12.41,12.41,0,0,1,15.29,2.59,14.88,14.88,0,0,0,5.31,4.52c2.94,1.32,6.43.46,9.13,2.24,1.6,1.05,2.28,3.05,2.62,5s.46,3.87,1.36,5.57a6.82,6.82,0,0,0,7.62,3.27,6.81,6.81,0,0,1-1.22,5.33,7.8,7.8,0,0,0,4.14-1,13.74,13.74,0,0,1-12.52,15.61" style="fill:#e0e0e0"></path><path d="M182.32,137.43c.19-.23,8.19-8.07,13,1.77s-6,12.69-6.18,12.41S182.32,137.43,182.32,137.43Z" style="fill:#ffbe9d"></path><path d="M190.35,146.4c0-.05.23,0,.59,0a1.9,1.9,0,0,0,1.29-.61c.85-.89.91-3,.08-4.77a6.18,6.18,0,0,0-1.69-2.22,2.23,2.23,0,0,0-1.94-.68,1,1,0,0,0-.77,1c0,.34.16.51.11.55s-.29-.06-.41-.51a1.29,1.29,0,0,1,.08-.8,1.46,1.46,0,0,1,.83-.72,2.69,2.69,0,0,1,2.54.64,6.42,6.42,0,0,1,1.95,2.45c.91,2,.82,4.37-.4,5.48a2,2,0,0,1-1.7.51C190.48,146.63,190.32,146.44,190.35,146.4Z" style="fill:#eb996e"></path><path d="M143.05,182.67c-3.73-6.79-10.28-21.39-16.05-34.68a29.89,29.89,0,0,1,13.33-38.28l1.37-.73c15.18-7,29.61,2,36.18,17.35l22.81,45.49-25.45,41.31-9.13-21.76S150.78,196.73,143.05,182.67Z" style="fill:#ffbe9d"></path><path d="M166.08,191.37a37.2,37.2,0,0,0,15.65-15.09s1.26,12.62-13.54,18.88Z" style="fill:#eb996e"></path><path d="M136.23,156.53a2.3,2.3,0,0,0,3,1,2.2,2.2,0,0,0,1.11-2.94,2.29,2.29,0,0,0-3-1A2.2,2.2,0,0,0,136.23,156.53Z" style="fill:#263238"></path><path d="M133.93,154c.39.13,1.31-1.82,3.49-3s4.35-.92,4.45-1.31c0-.18-.46-.52-1.42-.66a6.37,6.37,0,0,0-3.74.73,6,6,0,0,0-2.6,2.69C133.71,153.32,133.74,153.92,133.93,154Z" style="fill:#263238"></path><path d="M156.27,144.16c.4.11,1.2-1.9,3.3-3.19s4.28-1.19,4.35-1.59c0-.18-.49-.49-1.46-.56a6.22,6.22,0,0,0-3.68,1,6,6,0,0,0-2.43,2.85C156,143.52,156.08,144.12,156.27,144.16Z" style="fill:#263238"></path><path d="M156,162.62c-.06-.13-1.53.36-3.87,1.25-.59.24-1.17.41-1.47.08a3.26,3.26,0,0,1-.51-1.84c-.19-1.63-.4-3.33-.61-5.11-.93-7.24-1.93-13.07-2.22-13s.23,5.94,1.16,13.18c.25,1.78.48,3.47.7,5.09a3.66,3.66,0,0,0,.88,2.34,1.57,1.57,0,0,0,1.34.32,4.29,4.29,0,0,0,1-.37C154.73,163.47,156.1,162.75,156,162.62Z" style="fill:#263238"></path><path d="M163.24,160.71c-.36.17.89,2.53-.23,5.29s-3.78,3.83-3.62,4.17c0,.17.8.16,1.88-.38a6.68,6.68,0,0,0,3.09-3.35,5.76,5.76,0,0,0,0-4.35C164,161.05,163.4,160.61,163.24,160.71Z" style="fill:#263238"></path><path d="M149.16,131.26c.53.47,2.55-1,5.27-2s5.15-1.46,5.2-2.17c0-.34-.64-.7-1.78-.83a9.76,9.76,0,0,0-8,3.19C149.14,130.31,148.92,131,149.16,131.26Z" style="fill:#e0e0e0"></path><path d="M132.08,149.15c.65.29,1.87-1,3.66-2s3.51-1.44,3.58-2.15c0-.33-.48-.69-1.4-.81a6.06,6.06,0,0,0-5.83,3.35C131.72,148.38,131.79,149,132.08,149.15Z" style="fill:#e0e0e0"></path><path d="M129.25,113.93c3.87-4.71,9.46-6.48,15.16-8.64a27.4,27.4,0,0,1,13.69-1.79c7.51,1,13.65,5.75,17.62,12.2a70.89,70.89,0,0,1,8.46,20l-.59.17c1.22,1.44,2.49,3,2.79,4.84s-.81,4.08-2.69,4.26c-2.19.21-3.6-2.19-4.51-4.19a158.05,158.05,0,0,0-10.77-19.49c-3-4.69-9-9.07-14.1-9.26-11.33-.38-15.34,7.88-17.71,10.58-6.88-1.4-10.81,3.78-11.73,8.84C123,125.68,125.39,118.64,129.25,113.93Z" style="fill:#e0e0e0"></path><path d="M176.42,109.62c.18.29-.21,1-1.29,1.75a12.94,12.94,0,0,1-5.18,1.95,29.51,29.51,0,0,1-8,.09c-2.88-.3-5.89-.82-8.86-1a16.62,16.62,0,0,0-7.7,1.23,15.55,15.55,0,0,0-5.16,3.86c-2.54,2.85-3.27,5.43-4.05,5.32-.17,0-.32-.22-.43-.57a4.47,4.47,0,0,1-.16-1.52,12,12,0,0,1,1.61-5.33,15.92,15.92,0,0,1,10.8-7.81,21.47,21.47,0,0,1,5.31-.38,61.59,61.59,0,0,1,9.35,1.41,47.71,47.71,0,0,0,7,1,27.91,27.91,0,0,0,4.68-.16C175.51,109.35,176.23,109.29,176.42,109.62Z" style="fill:#fff"></path><path d="M180.84,117.4a5.46,5.46,0,0,1-1.65,1.34,13.36,13.36,0,0,1-10,1.6,5.47,5.47,0,0,1-2-.75,17.69,17.69,0,0,1,2.06.39,15.27,15.27,0,0,0,5,0,15.44,15.44,0,0,0,4.73-1.59A19.55,19.55,0,0,1,180.84,117.4Z" style="fill:#fff"></path><path d="M190.14,125a2.82,2.82,0,0,1-.83.21c-.54.1-1.33.21-2.31.29a34.72,34.72,0,0,1-15.15-2.19c-.91-.36-1.64-.68-2.13-.93a2.68,2.68,0,0,1-.74-.44c0-.08,1.15.4,3,1a43.43,43.43,0,0,0,7.4,1.77,42.58,42.58,0,0,0,7.59.39C188.93,125,190.13,124.89,190.14,125Z" style="fill:#fff"></path><path d="M138,107c.06,0-.64.78-1.62,2a14.57,14.57,0,0,0-2.81,5.5,8.9,8.9,0,0,0,.69,6,13.27,13.27,0,0,0,1.53,2.07s-.24-.1-.6-.39a5.83,5.83,0,0,1-1.25-1.5,8.72,8.72,0,0,1-.87-6.3,13.54,13.54,0,0,1,3-5.62A8.52,8.52,0,0,1,138,107Z" style="fill:#fff"></path><path d="M131.12,106.58c.08,0-.47.91-.94,2.47a11.7,11.7,0,0,0-.14,6.21,11.83,11.83,0,0,0,3.14,5.37c1.16,1.13,2.07,1.62,2,1.7s-.26-.06-.66-.29a9,9,0,0,1-1.61-1.14,11,11,0,0,1-3.1-12,9.66,9.66,0,0,1,.85-1.78C130.93,106.76,131.09,106.56,131.12,106.58Z" style="fill:#fff"></path><path d="M184.69,138a5.92,5.92,0,0,1-3.78.59,6,6,0,0,1-3.58-1.37,33.65,33.65,0,0,0,3.63.85A33.14,33.14,0,0,0,184.69,138Z" style="fill:#fff"></path><path d="M186.23,139.56a6.36,6.36,0,0,1-4,1.08,6.24,6.24,0,0,1-4-1.18,23.35,23.35,0,0,0,4,.66A22.88,22.88,0,0,0,186.23,139.56Z" style="fill:#fff"></path><path d="M124.87,134.21a3,3,0,0,1-1.53.21,7.23,7.23,0,0,1-3.53-1.15,7.15,7.15,0,0,1-2.5-2.74,2.79,2.79,0,0,1-.44-1.47c.08,0,.27.52.76,1.29a8.18,8.18,0,0,0,5.75,3.7A9.23,9.23,0,0,1,124.87,134.21Z" style="fill:#fff"></path><path d="M124.87,130.63a13.71,13.71,0,0,1-6.75-4.41c.11-.11,1.47,1.07,3.33,2.28S124.93,130.49,124.87,130.63Z" style="fill:#fff"></path><path d="M132.09,222.24s-2.32-12.11-1.71-14S134.3,200,134.16,193a155.45,155.45,0,0,0-1.33-15.61l-1.11-6.47-4.65-1.87s-1.74-4.37-2.54-5.16a3.9,3.9,0,0,0-4.73-.39,4.74,4.74,0,0,0-2,2.88,3.31,3.31,0,0,0-5,1.66s-2.46-1.18-4.14-.09A3.73,3.73,0,0,0,107,171s-2.2-1.23-3.73,0a2.93,2.93,0,0,0-1.07,3.11c.07.39,2.74,20.7,2.77,22.43s2.8,8.58,3.6,10.17,1.8,16,1.8,16Z" style="fill:#ffbe9d"></path><path d="M127.52,176.37s-.14.23-.28.68a7.26,7.26,0,0,0-.36,2,21,21,0,0,0,1,7l.07.23-.22.08a14.27,14.27,0,0,0-8.07,8,14.69,14.69,0,0,0-1,4.84,21.38,21.38,0,0,0,.5,4.55,4.68,4.68,0,0,1-.43-1.17,13.47,13.47,0,0,1-.44-3.39,14.46,14.46,0,0,1,.88-5,14,14,0,0,1,3.42-5.19,14.29,14.29,0,0,1,4.93-3.14l-.14.31a19.28,19.28,0,0,1-.79-7.22,6.4,6.4,0,0,1,.5-2,1.59,1.59,0,0,1,.3-.48C127.47,176.41,127.51,176.36,127.52,176.37Z" style="fill:#eb996e"></path><path d="M151.36,171.62c-.14,0-.39-.45-.55-1.08s-.19-1.17-.05-1.21.39.45.55,1.08S151.5,171.59,151.36,171.62Z" style="fill:#fff"></path><path d="M152.46,171.2c-.14,0-.32-.51-.56-1.11s-.49-1.09-.37-1.19.57.31.85,1S152.6,171.19,152.46,171.2Z" style="fill:#fff"></path><path d="M153.4,170.69c-.15,0-.34-.43-.57-1s-.4-1-.28-1.08.51.28.76.88S153.54,170.67,153.4,170.69Z" style="fill:#fff"></path><path d="M154.6,169.83c-.12.08-.48-.28-.81-.8s-.49-1-.37-1.07.48.28.81.79S154.72,169.75,154.6,169.83Z" style="fill:#fff"></path><path d="M156.11,168.91c-.13.07-.48-.31-.93-.73s-.83-.77-.76-.9.62,0,1.12.53S156.23,168.84,156.11,168.91Z" style="fill:#fff"></path><path d="M157.31,168.13c-.1.1-.53-.18-.95-.63s-.68-.88-.58-1,.54.18,1,.63S157.42,168,157.31,168.13Z" style="fill:#fff"></path><path d="M157.9,167.12c-.09.11-.55-.1-1-.47s-.77-.77-.68-.89.54.1,1,.48S158,167,157.9,167.12Z" style="fill:#fff"></path><path d="M158.4,166.1c-.12.08-.43-.21-.82-.51s-.74-.54-.7-.68.54-.1,1,.27S158.53,166,158.4,166.1Z" style="fill:#fff"></path><path d="M159,165.17c-.07.13-.53,0-1.05-.25s-.87-.58-.81-.71.54,0,1.05.25S159.07,165,159,165.17Z" style="fill:#fff"></path><path d="M159.85,164c0,.14-.49.09-1-.1s-.85-.44-.79-.58.49-.09,1,.1S159.9,163.85,159.85,164Z" style="fill:#fff"></path><path d="M160.78,163.05c0,.14-.53.14-1.12,0s-1-.37-1-.51.54-.14,1.12,0S160.82,162.91,160.78,163.05Z" style="fill:#fff"></path><polygon points="105.22 199.68 114.27 200.74 115.71 202.56 114.97 208.22 113.07 209.69 104.35 208.09 105.22 199.68" style="fill:#263238"></polygon><path d="M114.18,200.67a18,18,0,0,1-.35,4.38,17.77,17.77,0,0,1-.88,4.3,18.94,18.94,0,0,1,.36-4.38A19,19,0,0,1,114.18,200.67Z" style="fill:#455a64"></path><path d="M111.57,209.39A18.3,18.3,0,0,1,112,205a19.11,19.11,0,0,1,.95-4.34,18.93,18.93,0,0,1-.44,4.42A18.94,18.94,0,0,1,111.57,209.39Z" style="fill:#455a64"></path><path d="M96.49,213.9c0,.52,5.79,8.79,5.79,8.79h5.3l2-1.48.9-5.14-6.33-8.21Z" style="fill:#263238"></path><path d="M110.52,216.07c.07.13-1.92,1.42-4.18,3.29s-4,3.48-4.11,3.37A18.43,18.43,0,0,1,106,219,16,16,0,0,1,110.52,216.07Z" style="fill:#455a64"></path><path d="M109.9,215.27c.07.15-2.06,1.2-4.31,3s-3.7,3.71-3.82,3.62a11.56,11.56,0,0,1,3.49-4A12.67,12.67,0,0,1,109.9,215.27Z" style="fill:#455a64"></path><rect x="86.21" y="213.13" width="9.73" height="13.27" style="fill:#263238"></rect><path d="M96.07,224.91a23.12,23.12,0,0,1-4.85.26,23.06,23.06,0,0,1-4.84-.26,22.28,22.28,0,0,1,4.84-.26A22.34,22.34,0,0,1,96.07,224.91Z" style="fill:#455a64"></path><path d="M96.14,223.71a23.12,23.12,0,0,1-4.85.26,23.12,23.12,0,0,1-4.85-.26,23.12,23.12,0,0,1,4.85-.26A23.12,23.12,0,0,1,96.14,223.71Z" style="fill:#455a64"></path><path d="M81.4,209.41a13.37,13.37,0,0,0,24.3-9.66l-5.14,3.35Z" style="fill:#ebebeb"></path><path d="M56.74,263.21H69.83V250.4H97.36a3.25,3.25,0,0,0,3.25-3.25h0a3.26,3.26,0,0,0-3.25-3.25H81.3v-4.39h29a3.17,3.17,0,0,0,3.16-3.16h0a3.16,3.16,0,0,0-3.16-3.15H62.37v5H57Z" style="fill:#263238"></path><path d="M62.37,233.2c0,10.06,0,20,0,30" style="fill:#263238"></path><path d="M62.34,263.21c-.15,0-.26-6.72-.25-15s.14-15,.28-15,.25,6.71.24,15S62.48,263.21,62.34,263.21Z" style="fill:#455a64"></path><path d="M69.78,233.64A67.57,67.57,0,0,1,70,242.1a67.68,67.68,0,0,1-.26,8.47,70.05,70.05,0,0,1-.26-8.47A70,70,0,0,1,69.78,233.64Z" style="fill:#455a64"></path><path d="M113.42,288.65a16.4,16.4,0,0,0-13.29-11.47H56.6l-1,12.23Z" style="fill:#ebebeb"></path><path d="M33.73,259.78V210.37A3.43,3.43,0,0,1,36.38,207L77.3,195.38l.41-16.2,24.46-.41,7.57-7,11.94,13.64h0l-15.85,17.28L57.25,217.81l-.8,70.84H113.3a2.5,2.5,0,0,1,2.5,2.51v9.26H33.73Z" style="fill:#455a64"></path><rect x="82.04" y="228.89" width="26.42" height="4.31" rx="2.14" style="fill:#e0e0e0"></rect><path d="M106.31,233.2s.21,0,.57-.14a2.07,2.07,0,0,0,.93-3.35,2,2,0,0,0-1.36-.65H104.6l-20.42.08a1.9,1.9,0,0,0-.79,3.62,2.58,2.58,0,0,0,1.26.17h4l9.18,0,6.19.09,1.69,0a2.23,2.23,0,0,1,.58.06,3.8,3.8,0,0,1-.58.05l-1.69.05-6.19.08-9.18.06h-4a3.15,3.15,0,0,1-1.48-.22,2.41,2.41,0,0,1,1-4.6l20.42.08c.66,0,1.27,0,1.88,0a2.28,2.28,0,0,1,1.79,3.42,2.19,2.19,0,0,1-1.36,1A1.53,1.53,0,0,1,106.31,233.2Z" style="fill:#263238"></path><circle cx="45.09" cy="259.36" r="12.68" style="fill:#263238"></circle><path d="M52.14,259.77c-.06,0,0-.63-.32-1.69a7.06,7.06,0,0,0-2.58-3.76,6.87,6.87,0,0,0-2.89-1.26,6.94,6.94,0,0,0-3.58.32,6.74,6.74,0,0,0-3.15,2.38,6.8,6.8,0,0,0,3.15,10.4,6.74,6.74,0,0,0,3.58.32,6.86,6.86,0,0,0,2.89-1.25,7.06,7.06,0,0,0,2.58-3.76c.29-1.07.26-1.7.32-1.7a1.38,1.38,0,0,1,0,.46,5.61,5.61,0,0,1-.15,1.29,7.07,7.07,0,0,1-2.55,4,7.17,7.17,0,0,1-3,1.39,7.31,7.31,0,0,1-3.82-.29,7.27,7.27,0,0,1,3.82-14A7.15,7.15,0,0,1,52,258a5.5,5.5,0,0,1,.15,1.29A1.29,1.29,0,0,1,52.14,259.77Z" style="fill:#455a64"></path><polygon points="105.87 173.66 120.41 189.47 125.49 184.28 111.06 168.88 105.87 173.66" style="fill:#263238"></polygon><path d="M128,159.61l-6.64,6.33a1.14,1.14,0,0,0,0,1.6l5.65,6a1.13,1.13,0,0,0,1.62,0l6.72-6.63a1.14,1.14,0,0,0,0-1.62l-5.72-5.68A1.14,1.14,0,0,0,128,159.61Z" style="fill:#263238"></path><path d="M121.92,167.29c-.16.24-7.43,7.29-7.43,7.29l5.77,5.91,7.32-7.28Z" style="fill:#263238"></path><rect x="24.97" y="300.42" width="98.17" height="3.75" style="fill:#263238"></rect><rect x="77.71" y="266.82" width="22.43" height="10.36" style="fill:#455a64"></rect><path d="M80.13,277.18a50.44,50.44,0,0,1,0-10.23,48.59,48.59,0,0,1,0,10.23Z" style="fill:#263238"></path><path d="M83.89,277.18a50.44,50.44,0,0,1,0-10.23,50.44,50.44,0,0,1,0,10.23Z" style="fill:#263238"></path><path d="M87.64,277.18a50.44,50.44,0,0,1,0-10.23,50.44,50.44,0,0,1,0,10.23Z" style="fill:#263238"></path><path d="M91.39,277.18a50.44,50.44,0,0,1,0-10.23,50.44,50.44,0,0,1,0,10.23Z" style="fill:#263238"></path><path d="M95.14,277.18a50.44,50.44,0,0,1,0-10.23,50.44,50.44,0,0,1,0,10.23Z" style="fill:#263238"></path><path d="M98.89,277.18a50.44,50.44,0,0,1,0-10.23,50.44,50.44,0,0,1,0,10.23Z" style="fill:#263238"></path><path d="M149.84,304.72l13.75-.24-.79-22.11s-26-4-27.7-3.49L128,304S149.21,304.72,149.84,304.72Z" style="fill:#ffbe9d"></path><path d="M129.68,304.4s.2.08.49.11c2.44.27,13.68-.42,13.68-.42.52-1.45-.46-5.81-1.85-6.07s-13.37.55-13.37.55-1.89.25-2.36,3.42C126,303.94,129.68,304.4,129.68,304.4Z" style="fill:#ffbe9d"></path><path d="M125.88,298s.2.08.49.11c2.44.27,13.07.15,13.53-1.15.51-1.45-.3-5.09-1.7-5.34s-13.37.55-13.37.55-1.89.25-2.36,3.42C122.18,297.55,125.88,298,125.88,298Z" style="fill:#ffbe9d"></path><path d="M124,291.76s.19.08.49.11c2.43.27,13.06.15,13.52-1.14.52-1.46-.3-5.09-1.7-5.35s-13.37.55-13.37.55-1.88.25-2.35,3.42C120.3,291.31,124,291.76,124,291.76Z" style="fill:#ffbe9d"></path><path d="M122.22,285.55a1.12,1.12,0,0,0,.5.11c2.43.27,13.06.15,13.52-1.15s-.3-5.08-1.7-5.34-13.37.55-13.37.55-1.88.25-2.35,3.42C118.53,285.1,122.22,285.55,122.22,285.55Z" style="fill:#ffbe9d"></path><path d="M138.89,298c0,.18-2.34.4-5.18.48s-5.14,0-5.12-.19,2.33-.39,5.18-.47S138.9,297.78,138.89,298Z" style="fill:#eb996e"></path><path d="M138.94,291.69c0,.19-3.29.44-7.36.57s-7.37.08-7.38-.1,3.29-.44,7.36-.57S138.94,291.51,138.94,291.69Z" style="fill:#eb996e"></path><g style="opacity:0.78"><path d="M138.44,285.32c0,.19-3.29.44-7.36.57s-7.37.08-7.38-.1,3.29-.44,7.36-.57S138.43,285.14,138.44,285.32Z" style="fill:#eb996e"></path></g><path d="M155.51,281.38s-20.08-8.92-21.33-7.63-3.19,5.43-3.19,5.43Z" style="fill:#ffbe9d"></path></g><g id="freepik--Desk--inject-13"><path d="M712.1,482c0,.15-150.49.26-336.08.26S39.9,482.13,39.9,482s150.46-.26,336.12-.26S712.1,481.84,712.1,482Z" style="fill:#263238"></path></g></svg>