<svg xmlns="http://www.w3.org/2000/svg" viewBox="0 0 500 500"><g id="freepik--Floor--inject-5"><ellipse id="freepik--floor--inject-5" cx="247" cy="366.15" rx="231.26" ry="130.46" style="fill:#fafafa"></ellipse></g><g id="freepik--Window--inject-5"><g id="freepik--window--inject-5"><g id="freepik--window--inject-5"><g id="freepik--Frame--inject-5"><polygon points="470.52 229.29 468.05 230.76 384.11 182.3 386.58 180.83 470.52 229.29" style="fill:#fafafa"></polygon><polygon points="386.58 180.83 468.05 227.86 468.05 85.85 386.58 38.84 386.58 180.83" style="fill:#fff"></polygon><path d="M379.45,185l93.26,53.84V83.16L379.45,29.32Zm4.66-147.6,83.94,48.46V230.76L384.11,182.3Z" style="fill:#f0f0f0"></path><polygon points="384.11 182.3 386.58 180.83 386.58 38.84 384.11 37.39 384.11 182.3" style="fill:#e0e0e0"></polygon><polygon points="468.05 194.19 468.05 197.09 384.11 148.63 386.58 147.16 468.05 194.19" style="fill:#fafafa"></polygon><polygon points="468.05 111.26 468.05 114.16 384.11 65.7 386.58 64.22 468.05 111.26" style="fill:#fafafa"></polygon><polygon points="379.45 29.32 381.96 27.89 475.21 81.73 472.71 83.16 379.45 29.32" style="fill:#fafafa"></polygon><polygon points="475.21 81.73 472.71 83.16 472.71 238.83 475.21 237.39 475.21 81.73" style="fill:#e0e0e0"></polygon><polygon points="432.15 65.12 429.64 63.67 429.64 208.59 432.15 207.16 432.15 65.12" style="fill:#e0e0e0"></polygon></g><polygon points="424.99 61 429.64 63.67 429.64 208.59 424.99 205.9 424.99 61" style="fill:#f0f0f0"></polygon><polygon points="379.45 63.01 379.45 68.38 472.71 122.22 472.71 116.85 379.45 63.01" style="fill:#f0f0f0"></polygon><polygon points="379.45 145.93 379.45 151.3 472.71 205.14 472.71 199.77 379.45 145.93" style="fill:#f0f0f0"></polygon><polygon points="429.64 91.98 432.15 90.53 468.05 111.26 468.05 114.16 429.64 91.98" style="fill:#fafafa"></polygon><polygon points="429.64 174.89 432.15 173.44 468.05 194.16 468.05 197.06 429.64 174.89" style="fill:#fafafa"></polygon></g></g></g><g id="freepik--Plant--inject-5"><g id="freepik--Plants--inject-5"><path d="M53.39,406a.55.55,0,0,1-.23-.39c-2-21.54-20.31-37.13-28.14-43.79-1.26-1.07-2.26-1.92-2.9-2.55-2.87-2.8-4.12-6.48-3.33-9.84A9.09,9.09,0,0,1,25.16,343c8.17-2.67,21,7.47,29.19,23.06,11.49,21.86,6.1,38,6,38.14a.53.53,0,0,1-.37.34l-6.19,1.59a.41.41,0,0,1-.22,0A.43.43,0,0,1,53.39,406Zm0-39.49c-8-15.15-20.22-25-27.92-22.55a8,8,0,0,0-5.66,5.71,9.5,9.5,0,0,0,3,8.84c.62.6,1.61,1.44,2.85,2.5,7.86,6.68,26.14,22.23,28.45,43.88l5.3-1.36C60.1,401.39,63.86,386.42,53.41,366.53Z" style="fill:#FF6134"></path><path d="M57.13,405.21h.07a.54.54,0,0,0,.55-.53c.46-25.16-17-49.41-28.68-54.4a.53.53,0,0,0-.42,1c11.59,4.94,28.46,29.54,28,53.4A.53.53,0,0,0,57.13,405.21Z" style="fill:#FF6134"></path><path d="M59.81,404.52a.6.6,0,0,0,.23,0l4.2-1.27a.59.59,0,0,0,.36-.35c.07-.24,7.48-24.29,2-56.67-2.78-16.5-12.4-32.59-22.87-38.27-5-2.72-10-3.06-14.7-1-2.68,1.16-4.35,2.88-5,5.09-1.74,6.13,4.62,15.25,11.36,24.91,4.71,6.76,9.58,13.74,11.81,19.91a.53.53,0,0,0,1-.36c-2.27-6.3-7.18-13.35-11.93-20.16-6.59-9.45-12.81-18.36-11.22-24,.55-1.92,2-3.36,4.37-4.41,4.41-1.92,9-1.59,13.77,1,10.21,5.53,19.6,21.3,22.33,37.5,5.1,30.3-1.12,53.18-1.91,55.9l-3.93,1.18a.54.54,0,0,0-.35.67A.53.53,0,0,0,59.81,404.52Z" style="fill:#FF6134"></path><path d="M60.85,389.21h0a.54.54,0,0,0,.57-.49c3.17-38.93-18.55-70.1-25-75.45a.54.54,0,0,0-.76.07.53.53,0,0,0,.07.75c6.33,5.27,27.73,36,24.6,74.54A.52.52,0,0,0,60.85,389.21Z" style="fill:#FF6134"></path></g></g><g id="freepik--Diplomas--inject-5"><g id="freepik--Diploma--inject-5"><g id="freepik--window--inject-5"><polygon points="23.59 95.25 25.36 96.27 69.53 70.76 67.76 69.74 23.59 95.25" style="fill:#f0f0f0"></polygon><polygon points="67.76 69.74 25.36 94.22 25.36 57.47 67.76 32.99 67.76 69.74" style="fill:#fafafa"></polygon><path d="M71.3,28.91,23.59,56.45V99.32L71.3,71.78ZM69.53,70.76,25.36,96.26V57.47L69.53,32Z" style="fill:#ebebeb"></path><polygon points="69.53 70.76 67.76 69.74 67.76 32.99 69.53 31.97 69.53 70.76" style="fill:#e0e0e0"></polygon><polygon points="71.3 28.91 69.53 27.89 21.82 55.43 23.59 56.45 71.3 28.91" style="fill:#f5f5f5"></polygon><polygon points="21.82 55.43 23.59 56.45 23.59 99.33 21.82 98.31 21.82 55.43" style="fill:#e0e0e0"></polygon></g><path d="M59.45,63.56c1.64-1,3-.18,3,1.72a6.6,6.6,0,0,1-3,5.17c-1.65,1-3,.18-3-1.72A6.6,6.6,0,0,1,59.45,63.56Z" style="fill:#e0e0e0"></path><path d="M35.35,55.8l22.45-13c.63-.36,1.13-.07,1.13.65v.07a2.49,2.49,0,0,1-1.13,2l-22.45,13c-.63.37-1.13.07-1.13-.65v-.07A2.47,2.47,0,0,1,35.35,55.8Z" style="fill:#e0e0e0"></path><path d="M31.79,66,61.35,49c.62-.36,1.13-.2,1.13.37A2.27,2.27,0,0,1,61.35,51L31.77,68.07c-.63.36-1.13.19-1.12-.38A2.32,2.32,0,0,1,31.79,66Z" style="fill:#f0f0f0"></path><path d="M31.79,70.09,61.35,53c.62-.36,1.13-.2,1.13.36a2.27,2.27,0,0,1-1.13,1.68L31.77,72.14c-.63.37-1.13.2-1.12-.37A2.32,2.32,0,0,1,31.79,70.09Z" style="fill:#f0f0f0"></path><path d="M31.79,74.17,61.35,57.1c.62-.36,1.13-.19,1.13.37a2.27,2.27,0,0,1-1.13,1.67L31.77,76.22c-.63.36-1.13.19-1.12-.37A2.32,2.32,0,0,1,31.79,74.17Z" style="fill:#f0f0f0"></path><path d="M54.14,72.29a1.57,1.57,0,0,1-.74.19c-.63,0-.57-.64-.55-1.08,0-.21-.27-.51-.42-.25-.38.69-.87,1.33-1.28,2-.25.41-.73,1.34-1.34,1.21-.25-.06-.33-.33-.33-.67a3.33,3.33,0,0,0,.39-1.84c0-.19-.35-.43-.45-.17a6,6,0,0,0-.38,1.7,11.32,11.32,0,0,1-.95,1.42c-.21.27-.39.58-.62.83,0,.06-.16.22-.24.24s-.19-.09-.22-.23a1.63,1.63,0,0,1,.1-.61h0l0-.05h0c0-.2-.26-.5-.37-.25A8.87,8.87,0,0,1,45,77.63l-.11.09c0-.11,0-.23,0-.35a2.69,2.69,0,0,0-.14-.8c0-.13-.27-.33-.39-.16a14,14,0,0,1-2,2.72,4.13,4.13,0,0,1-.41.29c-.14-.08.07-.8.1-.9.08-.33.19-.64.29-1a4,4,0,0,0,.24-.79c0-.24-.38-.61-.46-.29,0,.14-.15.46-.27.86a20.33,20.33,0,0,1-1.66,2.81,6.39,6.39,0,0,1-2.31,2.22c-.26.14-.75.35-1,.14s-.26-.57-.27-.83a7.09,7.09,0,0,1,.28-2,12.29,12.29,0,0,0,2.56-1.81,8.78,8.78,0,0,0,1.94-2.14c.26-.48.42-1.26-.22-1.53a1.77,1.77,0,0,0-1.38.33,6,6,0,0,0-1.41,1.1,8.13,8.13,0,0,0-1.76,3.22c-.06.18-.13.43-.2.7a5.5,5.5,0,0,1-3.26.55c-.06,0-.08.13,0,.14a5.33,5.33,0,0,0,3.18-.3c-.28,1.23-.44,2.86.71,3.18s2.54-1.12,3.16-2a13.48,13.48,0,0,0,1.23-2,.83.83,0,0,1,.11-.15c0,.57.11,1,.67.9s1.09-.91,1.4-1.34.57-.85.84-1.27c.05.51.15,1.1.64,1s.9-1,1.13-1.3.39-.61.56-.93a.62.62,0,0,0,.11.17c.41.44.9,0,1.16-.38s.8-1,1.15-1.57a1,1,0,0,0,.49.55c.63.3,1.23-.22,1.59-.69a13.87,13.87,0,0,0,1.19-1.91.88.88,0,0,0,.44.6,1.46,1.46,0,0,0,1.48-.09C54.54,72.61,54.35,72.18,54.14,72.29ZM40.31,74.76c.29-.15.9-.4.94.09a1.7,1.7,0,0,1-.4.87,11.45,11.45,0,0,1-1.72,1.83A14.49,14.49,0,0,1,37,79.18,6.89,6.89,0,0,1,40.31,74.76Z" style="fill:#e0e0e0"></path></g><g id="freepik--diploma--inject-5"><g id="freepik--window--inject-5"><polygon points="23.59 153.86 25.36 154.88 69.53 129.38 67.76 128.35 23.59 153.86" style="fill:#f0f0f0"></polygon><polygon points="67.76 128.35 25.36 152.84 25.36 116.08 67.76 91.6 67.76 128.35" style="fill:#fafafa"></polygon><path d="M71.3,87.52,23.59,115.06v42.88L71.3,130.39Zm-1.77,41.85L25.36,154.88v-38.8l44.17-25.5Z" style="fill:#ebebeb"></path><polygon points="69.53 129.38 67.76 128.35 67.76 91.6 69.53 90.58 69.53 129.38" style="fill:#e0e0e0"></polygon><polygon points="71.3 87.52 69.53 86.5 21.82 114.04 23.59 115.06 71.3 87.52" style="fill:#f5f5f5"></polygon><polygon points="21.82 114.04 23.59 115.06 23.59 157.94 21.82 156.92 21.82 114.04" style="fill:#e0e0e0"></polygon></g><path d="M59.45,122.18c1.64-1,3-.19,3,1.72a6.6,6.6,0,0,1-3,5.16c-1.65.95-3,.18-3-1.72A6.58,6.58,0,0,1,59.45,122.18Z" style="fill:#e0e0e0"></path><path d="M35.35,114.41l22.45-13c.63-.36,1.13-.06,1.13.66v.06a2.49,2.49,0,0,1-1.13,2l-22.45,13c-.63.36-1.13.07-1.13-.66v-.07A2.49,2.49,0,0,1,35.35,114.41Z" style="fill:#e0e0e0"></path><path d="M31.79,124.63l29.56-17.07c.62-.36,1.13-.19,1.13.37a2.27,2.27,0,0,1-1.13,1.67L31.77,126.68c-.63.36-1.13.19-1.12-.37A2.32,2.32,0,0,1,31.79,124.63Z" style="fill:#f0f0f0"></path><path d="M31.79,128.7l29.56-17.06c.62-.36,1.13-.2,1.13.37a2.27,2.27,0,0,1-1.13,1.67L31.77,130.76c-.63.36-1.13.19-1.12-.38A2.33,2.33,0,0,1,31.79,128.7Z" style="fill:#f0f0f0"></path><path d="M31.79,132.78l29.56-17.06c.62-.36,1.13-.2,1.13.36a2.27,2.27,0,0,1-1.13,1.68L31.77,134.83c-.63.36-1.13.2-1.12-.37A2.32,2.32,0,0,1,31.79,132.78Z" style="fill:#f0f0f0"></path><path d="M54.14,130.9a1.7,1.7,0,0,1-.74.2c-.63,0-.57-.65-.55-1.09,0-.2-.27-.51-.42-.25-.38.7-.87,1.34-1.28,2-.25.41-.73,1.34-1.34,1.21-.25-.06-.33-.33-.33-.67a3.33,3.33,0,0,0,.39-1.84c0-.19-.35-.43-.45-.17A6,6,0,0,0,49,132a11.32,11.32,0,0,1-.95,1.42c-.21.28-.39.58-.62.84,0,.06-.16.21-.24.23s-.19-.09-.22-.23a1.55,1.55,0,0,1,.1-.6h0s0,0,0-.05h0c0-.2-.26-.5-.37-.25A8.87,8.87,0,0,1,45,136.24l-.11.1c0-.12,0-.24,0-.36a2.75,2.75,0,0,0-.14-.8c0-.13-.27-.33-.39-.16a13.69,13.69,0,0,1-2,2.72A2.93,2.93,0,0,1,42,138c-.14-.08.07-.79.1-.9.08-.32.19-.64.29-.95a4.15,4.15,0,0,0,.24-.78c0-.25-.38-.62-.46-.29,0,.13-.15.45-.27.85a19.76,19.76,0,0,1-1.66,2.81A6.42,6.42,0,0,1,37.88,141c-.26.14-.75.34-1,.14s-.26-.58-.27-.84a7.19,7.19,0,0,1,.28-2.05,12.29,12.29,0,0,0,2.56-1.81,8.78,8.78,0,0,0,1.94-2.14c.26-.48.42-1.26-.22-1.53-.44-.18-1,.13-1.38.34a6,6,0,0,0-1.41,1.09,8.13,8.13,0,0,0-1.76,3.22c-.06.19-.13.43-.2.71a5.5,5.5,0,0,1-3.26.54c-.06,0-.08.13,0,.14a5.33,5.33,0,0,0,3.18-.3c-.28,1.23-.44,2.87.71,3.18s2.54-1.12,3.16-1.94a13.07,13.07,0,0,0,1.23-2l.11-.15c0,.58.11,1,.67.9s1.09-.9,1.4-1.34.57-.84.84-1.27c.05.51.15,1.1.64,1s.9-.95,1.13-1.3.39-.61.56-.93a.62.62,0,0,0,.11.17c.41.44.9,0,1.16-.38a19.26,19.26,0,0,0,1.15-1.57,1,1,0,0,0,.49.55c.63.3,1.23-.22,1.59-.69a13.3,13.3,0,0,0,1.19-1.91.92.92,0,0,0,.44.61,1.46,1.46,0,0,0,1.48-.1C54.54,131.22,54.35,130.8,54.14,130.9Zm-13.83,2.47c.29-.15.9-.4.94.1a1.7,1.7,0,0,1-.4.86,11,11,0,0,1-1.72,1.83A14.56,14.56,0,0,1,37,137.8,6.91,6.91,0,0,1,40.31,133.37Z" style="fill:#e0e0e0"></path></g><g id="freepik--diploma--inject-5"><g id="freepik--window--inject-5"><polygon points="23.59 212.47 25.36 213.49 69.53 187.99 67.76 186.97 23.59 212.47" style="fill:#f0f0f0"></polygon><polygon points="67.76 186.97 25.36 211.45 25.36 174.69 67.76 150.21 67.76 186.97" style="fill:#fafafa"></polygon><path d="M71.3,146.13,23.59,173.68v42.87L71.3,189ZM69.53,188l-44.17,25.5V174.7l44.17-25.51Z" style="fill:#ebebeb"></path><polygon points="69.53 187.99 67.76 186.97 67.76 150.21 69.53 149.19 69.53 187.99" style="fill:#e0e0e0"></polygon><polygon points="71.3 146.13 69.53 145.11 21.82 172.66 23.59 173.68 71.3 146.13" style="fill:#f5f5f5"></polygon><polygon points="21.82 172.66 23.59 173.68 23.59 216.55 21.82 215.53 21.82 172.66" style="fill:#e0e0e0"></polygon></g><path d="M59.45,180.79c1.64-.95,3-.18,3,1.72a6.63,6.63,0,0,1-3,5.17c-1.65.95-3,.18-3-1.73A6.58,6.58,0,0,1,59.45,180.79Z" style="fill:#e0e0e0"></path><path d="M35.35,173l22.45-13c.63-.36,1.13-.07,1.13.65v.06a2.49,2.49,0,0,1-1.13,2l-22.45,13c-.63.36-1.13.07-1.13-.65V175A2.49,2.49,0,0,1,35.35,173Z" style="fill:#e0e0e0"></path><path d="M31.79,183.24l29.56-17.06c.62-.36,1.13-.2,1.13.36a2.27,2.27,0,0,1-1.13,1.68L31.77,185.29c-.63.36-1.13.2-1.12-.37A2.32,2.32,0,0,1,31.79,183.24Z" style="fill:#f0f0f0"></path><path d="M31.79,187.32l29.56-17.07c.62-.36,1.13-.19,1.13.37a2.27,2.27,0,0,1-1.13,1.67L31.77,189.37c-.63.36-1.13.19-1.12-.37A2.32,2.32,0,0,1,31.79,187.32Z" style="fill:#f0f0f0"></path><path d="M31.79,191.39l29.56-17.06c.62-.36,1.13-.2,1.13.37a2.27,2.27,0,0,1-1.13,1.67L31.77,193.45c-.63.36-1.13.19-1.12-.38A2.33,2.33,0,0,1,31.79,191.39Z" style="fill:#f0f0f0"></path><path d="M54.14,189.51a1.7,1.7,0,0,1-.74.2c-.63,0-.57-.65-.55-1.09,0-.2-.27-.51-.42-.24-.38.69-.87,1.33-1.28,2-.25.41-.73,1.34-1.34,1.21-.25-.05-.33-.32-.33-.66a3.39,3.39,0,0,0,.39-1.85c0-.19-.35-.42-.45-.16a5.88,5.88,0,0,0-.38,1.69,10.63,10.63,0,0,1-.95,1.42c-.21.28-.39.58-.62.84,0,.06-.16.22-.24.23S47,193,47,192.87a1.58,1.58,0,0,1,.1-.6h0s0,0,0-.05h0c0-.2-.26-.5-.37-.25A8.66,8.66,0,0,1,45,194.85l-.11.1c0-.12,0-.24,0-.36a2.75,2.75,0,0,0-.14-.8c0-.13-.27-.33-.39-.15a14.29,14.29,0,0,1-2,2.72,3.8,3.8,0,0,1-.41.28c-.14-.07.07-.79.1-.9.08-.32.19-.63.29-1a4.15,4.15,0,0,0,.24-.78c0-.24-.38-.62-.46-.29,0,.13-.15.46-.27.86a20.22,20.22,0,0,1-1.66,2.8,6.42,6.42,0,0,1-2.31,2.23c-.26.14-.75.35-1,.14s-.26-.57-.27-.84a7.07,7.07,0,0,1,.28-2,13.08,13.08,0,0,0,2.56-1.81,9,9,0,0,0,1.94-2.15c.26-.47.42-1.25-.22-1.52-.44-.19-1,.12-1.38.33a6,6,0,0,0-1.41,1.09A8.1,8.1,0,0,0,36.58,196c-.06.18-.13.42-.2.7a5.5,5.5,0,0,1-3.26.54c-.06,0-.08.13,0,.14a5.33,5.33,0,0,0,3.18-.3c-.28,1.24-.44,2.87.71,3.19s2.54-1.12,3.16-1.95a13.07,13.07,0,0,0,1.23-2,.76.76,0,0,1,.11-.14c0,.57.11,1,.67.89s1.09-.9,1.4-1.34.57-.84.84-1.27c.05.52.15,1.1.64,1s.9-.95,1.13-1.3.39-.61.56-.92a.57.57,0,0,0,.11.16c.41.44.9,0,1.16-.37.38-.5.8-1,1.15-1.58a1,1,0,0,0,.49.56c.63.29,1.23-.23,1.59-.7a13.3,13.3,0,0,0,1.19-1.91.88.88,0,0,0,.44.61,1.43,1.43,0,0,0,1.48-.1C54.54,189.83,54.35,189.41,54.14,189.51ZM40.31,192c.29-.15.9-.4.94.1a1.7,1.7,0,0,1-.4.86,10.66,10.66,0,0,1-1.72,1.83A14.56,14.56,0,0,1,37,196.41,6.91,6.91,0,0,1,40.31,192Z" style="fill:#e0e0e0"></path></g></g><g id="freepik--Shadows--inject-5"><path id="freepik--Shadow--inject-5" d="M299.22,423l70.68,40.8a8.39,8.39,0,0,0,7.59,0l38.66-22.32c2.09-1.21,2.09-3.17,0-4.38l-70.68-40.81a8.39,8.39,0,0,0-7.59,0l-38.66,22.33C297.13,419.83,297.13,421.79,299.22,423Z" style="fill:#e0e0e0"></path><path id="freepik--shadow--inject-5" d="M229.38,412.11c17.09,9.87,44.81,9.87,61.9,0s17.09-25.87,0-35.74-44.81-9.87-61.9,0S212.29,402.24,229.38,412.11Z" style="fill:#e0e0e0"></path><path id="freepik--shadow--inject-5" d="M63.1,458.1c29.26,16.89,76.7,16.89,106,0s29.26-44.28,0-61.18-76.7-16.89-106,0S33.84,441.21,63.1,458.1Z" style="fill:#e0e0e0"></path><path id="freepik--shadow--inject-5" d="M442.54,440.07,248.1,327.81c-2.4-1.38-2.4-3.62,0-5l15.71-9.08a9.57,9.57,0,0,1,8.66,0L466.91,426c2.39,1.38,2.39,3.61,0,5l-15.71,9.07A9.57,9.57,0,0,1,442.54,440.07Z" style="fill:#e6e6e6"></path></g><g id="freepik--Symbol--inject-5"><g id="freepik--medical-symbol--inject-5"><polygon points="205.56 324.95 216.88 308.97 206.58 292.94 195.3 286.43 192.82 289.93 183.47 284.51 164.03 295.74 164.03 314.33 152.21 311.31 141.91 339.24 153.24 345.76 141.91 361.74 152.21 377.77 163.49 384.29 165.96 380.8 175.32 386.2 194.76 374.97 194.76 356.38 206.58 359.4 216.88 331.48 205.56 324.95" style="fill:#FF6134"></polygon><polygon points="205.56 324.95 216.88 308.97 206.58 292.94 195.3 286.43 192.82 289.93 183.47 284.51 164.03 295.74 164.03 314.33 152.21 311.31 141.91 339.24 153.24 345.76 141.91 361.74 152.21 377.77 163.49 384.29 165.96 380.8 175.32 386.2 194.76 374.97 194.76 356.38 206.58 359.4 216.88 331.48 205.56 324.95" style="fill:#fff;opacity:0.8"></polygon><polygon points="192.82 289.93 194.76 291.03 194.76 309.62 206.58 292.94 195.3 286.43 192.82 289.93" style="fill:#FF6134;opacity:0.5"></polygon><polygon points="152.21 311.31 163.49 317.82 175.32 320.84 164.03 314.33 152.21 311.31" style="fill:#FF6134;opacity:0.30000000000000004"></polygon><polygon points="164.03 295.74 175.32 302.25 175.32 320.84 164.03 314.33 164.03 295.74" style="fill:#FF6134;opacity:0.5"></polygon><polygon points="152.21 311.31 163.49 317.82 153.19 345.75 141.91 339.24 152.21 311.31" style="fill:#FF6134;opacity:0.5"></polygon><polygon points="166.69 349.2 153.19 345.75 141.91 361.74 153.19 368.25 166.69 349.2" style="fill:#FF6134;opacity:0.5"></polygon><polygon points="141.91 361.74 153.19 368.25 163.49 384.29 152.21 377.77 141.91 361.74" style="fill:#FF6134;opacity:0.65"></polygon><polygon points="175.32 386.2 165.96 380.8 175.32 367.6 175.32 386.2" style="fill:#FF6134;opacity:0.65"></polygon><polygon points="216.88 331.48 203.38 328.02 205.56 324.95 216.88 331.48" style="fill:#FF6134;opacity:0.5"></polygon><polygon points="198.62 328.6 212.9 308.45 205.48 296.9 193.23 314.17 191.35 313.08 191.35 295.03 176.84 303.4 176.84 323.63 163.98 320.34 155.5 343.33 167.69 346.45 169.57 347.54 155.29 367.69 162.72 379.24 174.96 361.97 176.84 363.05 176.84 381.11 191.35 372.74 191.35 352.51 204.22 355.8 212.7 332.81 200.5 329.68 198.62 328.6" style="fill:#fafafa"></polygon><path d="M175,362l-12.24,17.27,1.26,2,12.86-18.15Zm29.26-6.17-12.87-3.29v20.23l-14.51,8.37v2.17l16.39-9.46V353.59l12.87,3.29,8.68-23.54-2.08-.54Zm-3.72-26.12,14.28-20.14L206.1,296l-.62.88,7.42,11.55L198.62,328.6Zm-7.27-35.74L191.35,295v18.06l1.88,1.08Zm-25.54,52.52-12.19-3.13-.21.56,14.28,3.65Z" style="fill:#FF6134"></path><path d="M175,362l-12.24,17.27,1.26,2,12.86-18.15Zm29.26-6.17-12.87-3.29v20.23l-14.51,8.37v2.17l16.39-9.46V353.59l12.87,3.29,8.68-23.54-2.08-.54Zm-3.72-26.12,14.28-20.14L206.1,296l-.62.88,7.42,11.55L198.62,328.6Zm-7.27-35.74L191.35,295v18.06l1.88,1.08Zm-25.54,52.52-12.19-3.13-.21.56,14.28,3.65Z" style="fill:#fff;opacity:0.7000000000000001"></path><polygon points="191.35 372.74 193.23 373.82 193.23 353.59 191.35 352.51 191.35 372.74" style="fill:#FF6134;opacity:0.35000000000000003"></polygon><polygon points="204.22 355.8 206.1 356.88 214.78 333.34 212.7 332.81 204.22 355.8" style="fill:#FF6134;opacity:0.35000000000000003"></polygon><polygon points="176.84 363.05 174.96 361.97 162.72 379.24 163.98 381.2 176.84 363.05" style="fill:#FF6134;opacity:0.35000000000000003"></polygon><polygon points="212.9 308.45 214.78 309.54 206.1 296.02 205.48 296.9 212.9 308.45" style="fill:#FF6134;opacity:0.35000000000000003"></polygon><polygon points="193.23 314.17 191.35 313.08 191.35 295.03 193.23 293.94 193.23 314.17" style="fill:#FF6134;opacity:0.35000000000000003"></polygon><polygon points="169.57 347.54 167.69 346.45 155.5 343.33 155.29 343.89 169.57 347.54" style="fill:#FF6134;opacity:0.35000000000000003"></polygon><path d="M184,369.9h.11l-.06,4.72Z" style="fill:#455a64"></path><path d="M184.26,355.85l0,4.74,0,2.82,0,4.74-.14,0,0-4.35,0-2.81-.05-5.16Z" style="fill:#455a64"></path><path d="M184.48,335.7l-.08,6.76-.11,10.31-.48-.12-.06-5.95,0-3.43-.08-7.43.62-.1Z" style="fill:#455a64"></path><path d="M185.86,311.66a4.59,4.59,0,0,1-1.16,2.91l-.07,6.95,0,3-.08,7.4-.93,0-.07-6.38-.06-4.92-.05-5.32c-.68,0-1.16-.56-1.16-1.58a4.35,4.35,0,0,1,1.8-3.45C185.05,309.72,185.86,310.33,185.86,311.66Z" style="fill:#455a64"></path><path d="M189.67,317.92a8.6,8.6,0,0,0-4.6,2l0,3.65a17.18,17.18,0,0,1,4-2.36s-.2,1.09.28,1.3a4.24,4.24,0,0,0,3.51-.51C193.79,321.11,193.12,318,189.67,317.92Zm1.1,2.7c-.23.12-.41,0-.41-.31a1,1,0,0,1,.41-.77c.22-.13.4,0,.4.31A1,1,0,0,1,190.77,320.62Zm-5.83,11.87-.43,0c-.31,0-.62,0-.91,0h-.44c-1.27,0-2.2-.42-2.2-1.82a8.17,8.17,0,0,1,2.12-5.29l0-3.8C180.32,324.3,178,328,178,331.87s2.6,3.84,5.22,3.44l.43-.06.86-.15.43-.08c2-.33,3.63-.49,3.63,1.19,0,1.91-1.77,4.08-3.71,6.38l0,2.22c2.49-2.94,5.35-6.2,5.35-9.53S187.42,332.31,184.94,332.49Zm-.23,21-.43-.09-.46-.1-.43-.11c-1.22-.33-2.23-.86-2.23-2.34,0-1.26.91-2.7,2.16-4.28l0-2.19c-1.88,2.29-3.54,4.66-3.54,7,0,2.86,1.89,3.34,3.66,3.63l.43.07.42.07.43.08c1,.22,1.75.57,1.75,1.63,0,1.33-.84,2.54-1.81,3.79l0,1.52c1.39-1.73,3-3.57,3-6.26C187.58,354.25,186.19,353.85,184.71,353.52Zm-.17,15.34a2.85,2.85,0,0,1-.42,0,.5.5,0,0,1-.13,0,1.31,1.31,0,0,1-.43-.16c-.58-.3-1-.95-1-2.23a5,5,0,0,1,.9-2.68v-1.54a7.29,7.29,0,0,0-1.73,4.33c0,1.65.74,2.56,1.8,2.74a3.15,3.15,0,0,0,.44,0h.11l.43-.06a4.34,4.34,0,0,0,1.29-.5A6.44,6.44,0,0,1,184.54,368.86Z" style="fill:#455a64"></path><polygon points="175.32 302.25 194.76 291.03 183.47 284.51 164.03 295.74 175.32 302.25" style="fill:#FF6134;opacity:0.2"></polygon></g></g><g id="freepik--Clipboard--inject-5"><g id="freepik--clip-board--inject-5"><g id="freepik--Board--inject-5"><path d="M440.84,430.36l3.72-2.14a4.71,4.71,0,0,0,2.12-3.68V126.41a4.71,4.71,0,0,0-2.12-3.68L273.49,24a4.66,4.66,0,0,0-4.24,0l-3.73,2.15a4.68,4.68,0,0,0-2.12,3.67V327.92a4.7,4.7,0,0,0,2.12,3.68l171.07,98.76A4.68,4.68,0,0,0,440.84,430.36Z" style="fill:#FF6134"></path><path d="M440.84,430.36l3.72-2.14a4.71,4.71,0,0,0,2.12-3.68V126.41a4.71,4.71,0,0,0-2.12-3.68L273.49,24a4.66,4.66,0,0,0-4.24,0l-3.73,2.15a4.68,4.68,0,0,0-2.12,3.67V327.92a4.7,4.7,0,0,0,2.12,3.68l171.07,98.76A4.68,4.68,0,0,0,440.84,430.36Z" style="opacity:0.30000000000000004"></path><path d="M263.42,29.45c.15-1.1,1-1.5,2.1-.88l171.07,98.76a4.31,4.31,0,0,1,1.5,1.58l8-4.6a4.39,4.39,0,0,0-1.5-1.58L273.5,24a4.68,4.68,0,0,0-4.25,0l-3.73,2.14A4.77,4.77,0,0,0,263.42,29.45Z" style="fill:#FF6134;opacity:0.4"></path><path d="M437,430.53a.35.35,0,0,0,.13.05l.22.08.08,0,.4.1h0a4.81,4.81,0,0,0,2.53-.21c.16-.06.32-.14.47-.21l3.72-2.15a4.73,4.73,0,0,0,2.12-3.68V126.41a4.31,4.31,0,0,0-.62-2.1l-8,4.6a4.32,4.32,0,0,1,.63,2.1V429.14a1.76,1.76,0,0,1-.33,1.12,1.1,1.1,0,0,1-1.13.36Z" style="opacity:0.15"></path></g><g id="freepik--Clip--inject-5"><path d="M315.22,80.68l71.7,41.4,4-2.3V108.72c0-1.4-.22-3.22-5.6-10.64s-5.53-10-8-13.34S370.42,78.87,367.26,71,363.81,51,355.05,46a7.84,7.84,0,0,0-3.84-1.24,3.94,3.94,0,0,0-2,.55l-3.66,2.11-.33.19,1.05,1.55c-1.21,2.66-2,5.88-3.39,7.71a5.61,5.61,0,0,1-4.07,2.42c-2.25.26-4.5-.62-6-.25a4.12,4.12,0,0,0-1,.42h0l-4,2.3h0l.27.33a16.14,16.14,0,0,1-1.56.64c-.48.15-1,.31-1.64.45a13.19,13.19,0,0,0-4.12,1.46l-3.53,2-.32.19Zm65.67,25.21c0-1.44.75-2.17,1.68-1.63a4.5,4.5,0,0,1,1.7,3.59c0,1.44-.77,2.15-1.7,1.62A4.45,4.45,0,0,1,380.89,105.89Zm-36.2-41c0-4.63,2.06-7.3,4.85-6.76a3.59,3.59,0,0,1,5.51-1.68c3.53,2,6.39,8.09,6.39,13.52,0,4.61-2.07,7.3-4.84,6.76-1.11,2.28-3.17,3.05-5.52,1.69C347.54,76.39,344.69,70.34,344.69,64.9ZM325.57,74c0-1.45.76-2.17,1.7-1.63A4.47,4.47,0,0,1,329,75.92c0,1.43-.76,2.16-1.69,1.62A4.44,4.44,0,0,1,325.57,74Z" style="fill:#455a64"></path><path d="M382.94,111.45l7.71-4.45a5.61,5.61,0,0,1,.25,1.72v11.06l-4,2.3-4-2.3Z" style="fill:#37474f;opacity:0.5"></path><path d="M375,97.65l-4-9.2,6.33-3.71h0c1.86,2.57,2.4,4.65,4.9,8.73Z" style="fill:#37474f;opacity:0.5"></path><path d="M359,79.25l-.52-2.68c1.76-.74,2.93-3.12,2.93-6.59,0-4.61-2.06-9.66-4.85-12.33l5.52-3.19c2.36,5.36,3.23,11.69,5.15,16.5.41,1,.84,1.94,1.28,2.8Z" style="fill:#37474f;opacity:0.5"></path><path d="M315.22,69.62V80.68l71.7,41.4V111c0-1.4-.21-3.21-5.59-10.64s-5.54-9.94-8-13.34-6.89-5.86-10-13.78-3.45-19.91-12.21-25c-2.43-1.4-4.2-1.51-5.57-.88l-.33.19c-3.3,1.95-4.11,8.58-6.32,11.56a1.25,1.25,0,0,0-.09.12c-3.16,4.09-7.56,1.46-10,2a4,4,0,0,0-1.07.43,8.06,8.06,0,0,0-1.29,1,11.52,11.52,0,0,1-5.61,2.74,16.05,16.05,0,0,0-3.68,1.2l-.32.19A2.79,2.79,0,0,0,315.22,69.62Zm61.69,38.57c0-1.44.75-2.18,1.69-1.64a4.51,4.51,0,0,1,1.69,3.59c0,1.44-.76,2.17-1.69,1.63A4.46,4.46,0,0,1,376.91,108.19ZM344.69,64.9c0-4.63,2.06-7.3,4.85-6.76a5.36,5.36,0,0,1,1.54.61c3.53,2,6.39,8.1,6.39,13.53a10.2,10.2,0,0,1-.87,4.46c-1.11,2.28-3.17,3.05-5.52,1.69C347.54,76.39,344.69,70.34,344.69,64.9ZM321.6,76.26c0-1.44.76-2.17,1.69-1.63A4.44,4.44,0,0,1,325,78.21c0,1.44-.75,2.16-1.69,1.62A4.46,4.46,0,0,1,321.6,76.26Z" style="fill:#37474f"></path><path d="M344.69,64.9c0,5.44,2.85,11.49,6.39,13.53,2.35,1.36,4.41.59,5.52-1.69a4.89,4.89,0,0,1-1.55-.61c-3.53-2-6.39-8.09-6.39-13.52a10.21,10.21,0,0,1,.88-4.47C346.75,57.6,344.69,60.27,344.69,64.9Z" style="fill:#263238"></path><path d="M378.6,111.77c.93.53,1.69-.19,1.69-1.63a4.51,4.51,0,0,0-1.69-3.59c-.94-.53-1.69.2-1.69,1.64a4.44,4.44,0,0,0,1.69,3.58" style="fill:#263238"></path><path d="M323.29,79.84c.94.54,1.7-.19,1.7-1.62a4.47,4.47,0,0,0-1.7-3.59c-.93-.54-1.69.2-1.69,1.63a4.47,4.47,0,0,0,1.69,3.58" style="fill:#263238"></path></g><g id="freepik--Paper--inject-5"><path d="M425.49,145.22,276.63,59.28a2.8,2.8,0,0,0-2.55,0l-1.43.83a2.81,2.81,0,0,0-1.28,2.21V319.7a2.82,2.82,0,0,0,1.28,2.21L421.5,407.85a2.8,2.8,0,0,0,2.55,0l1.44-.83a2.84,2.84,0,0,0,1.27-2.21V147.43A2.84,2.84,0,0,0,425.49,145.22Z" style="fill:#f5f5f5"></path><path d="M421.81,408a1.71,1.71,0,0,0,.47.12l.24,0a3.4,3.4,0,0,0,.78,0,1.8,1.8,0,0,0,.47-.12l.28-.14,1.44-.82a2.85,2.85,0,0,0,1.27-2.21V147.44a2.61,2.61,0,0,0-.37-1.26l-4,2.3a2.72,2.72,0,0,1,.37,1.25V407.11C422.78,407.81,422.37,408.15,421.81,408Z" style="fill:#e0e0e0"></path><path d="M272.65,60.11l1.43-.83a2.8,2.8,0,0,1,2.55,0l148.86,85.94a2.84,2.84,0,0,1,1.27,2.21v42.44l-4,2.31L271.37,104.77V62.32A2.81,2.81,0,0,1,272.65,60.11Z" style="fill:#FF6134"></path><path d="M272.65,60.11l1.43-.83a2.8,2.8,0,0,1,2.55,0l148.86,85.94a2.84,2.84,0,0,1,1.27,2.21v42.44l-4,2.31L271.37,104.77V62.32A2.81,2.81,0,0,1,272.65,60.11Z" style="fill:#fff;opacity:0.4"></path><path d="M271.42,61.93c.16-.52.65-.69,1.22-.35L421.5,147.52a2.6,2.6,0,0,1,.91.95l4-2.29a2.5,2.5,0,0,0-.9-1L276.63,59.28a2.78,2.78,0,0,0-2.54,0l-1.45.83A2.86,2.86,0,0,0,271.42,61.93Z" style="fill:#FF6134"></path><path d="M271.42,61.93c.16-.52.65-.69,1.22-.35L421.5,147.52a2.6,2.6,0,0,1,.91.95l4-2.29a2.5,2.5,0,0,0-.9-1L276.63,59.28a2.78,2.78,0,0,0-2.54,0l-1.45.83A2.86,2.86,0,0,0,271.42,61.93Z" style="fill:#fff;opacity:0.6000000000000001"></path><path d="M426.76,147.43v42.45l-4,2.3V149.73a2.79,2.79,0,0,0-.37-1.26l4-2.29A2.54,2.54,0,0,1,426.76,147.43Z" style="fill:#FF6134"></path></g><path d="M315.74,181.69l7.61-11.48-5.72-3.3-5,7.69-5.84-16.34a3.88,3.88,0,0,0,2.53-2.33,12,12,0,0,0,.93-5,18.49,18.49,0,0,0-9.37-16.16l-7.25-4.19V162.5l4.72,2.73V155.08l3.15,1.82,8,20.73-7.84,12,5.85,3.38,5.16-8,4.86,13.82,6.08,3.51ZM298.36,149v-9.63l3.38,2a6.25,6.25,0,0,1,2.89,3.25,10.77,10.77,0,0,1,.75,3.75,3.92,3.92,0,0,1-.88,2.72q-.87,1-2.79-.12Z" style="fill:#FF6134"></path><polygon points="411.44 212.03 346.25 174.39 346.25 160.97 411.44 198.6 411.44 212.03" style="fill:#e0e0e0"></polygon><path d="M411.44,226.42l-65.19-37.64a3.1,3.1,0,0,1-1.18-2.5c0-1,.53-1.51,1.18-1.14l65.19,37.64a3.13,3.13,0,0,1,1.18,2.5C412.62,226.29,412.09,226.8,411.44,226.42Z" style="fill:#e0e0e0"></path><path d="M411.44,238.69l-65.19-37.64a3.13,3.13,0,0,1-1.18-2.5c0-1,.53-1.52,1.18-1.14l65.19,37.64a3.13,3.13,0,0,1,1.18,2.5C412.62,238.56,412.09,239.06,411.44,238.69Z" style="fill:#e0e0e0"></path><path d="M411.44,251l-65.19-37.64a3.1,3.1,0,0,1-1.18-2.5c0-1,.53-1.51,1.18-1.13l65.19,37.63a3.14,3.14,0,0,1,1.18,2.51C412.62,250.82,412.09,251.33,411.44,251Z" style="fill:#e0e0e0"></path><path d="M411.44,276.38,286.06,204a3.14,3.14,0,0,1-1.18-2.51c0-1,.53-1.51,1.18-1.13l125.38,72.38a3.13,3.13,0,0,1,1.18,2.5C412.62,276.25,412.09,276.76,411.44,276.38Z" style="fill:#e0e0e0"></path><path d="M411.44,291.74,286.06,219.36a3.14,3.14,0,0,1-1.18-2.51c0-1,.53-1.51,1.18-1.13L411.44,288.1a3.13,3.13,0,0,1,1.18,2.5C412.62,291.61,412.09,292.12,411.44,291.74Z" style="fill:#e0e0e0"></path><path d="M411.44,307.1,286.06,234.72a3.14,3.14,0,0,1-1.18-2.51c0-1,.53-1.51,1.18-1.13l125.38,72.38a3.14,3.14,0,0,1,1.18,2.51C412.62,307,412.09,307.48,411.44,307.1Z" style="fill:#e0e0e0"></path><path d="M411.44,322.46,286.06,250.08a3.14,3.14,0,0,1-1.18-2.51c0-1,.53-1.51,1.18-1.13l125.38,72.38a3.14,3.14,0,0,1,1.18,2.51C412.62,322.33,412.09,322.84,411.44,322.46Z" style="fill:#e0e0e0"></path><path d="M411.44,357.25,286.06,284.86a1,1,0,0,1-.39-.83c0-.33.18-.5.39-.38L411.44,356a1,1,0,0,1,.39.83C411.83,357.21,411.66,357.38,411.44,357.25Z" style="fill:#FF6134"></path><path d="M294.93,322.54c-4.52-2.62-8.21-10.41-8.21-17.38s3.69-10.51,8.21-7.9,8.21,10.41,8.21,17.38S299.46,325.15,294.93,322.54Zm0-24.07c-4.09-2.36-7.42.85-7.42,7.14s3.33,13.35,7.42,15.71,7.42-.84,7.42-7.14S299,300.84,294.93,298.47Z" style="fill:#455a64"></path><path d="M300.63,313.19c0,4.84-2.55,7.3-5.7,5.48s-5.7-7.22-5.7-12.06,2.56-7.3,5.7-5.48S300.63,308.34,300.63,313.19Z" style="fill:#455a64"></path><polygon points="351.48 337.01 311.57 313.97 311.57 310.71 351.48 333.75 351.48 337.01" style="fill:#e0e0e0"></polygon><polygon points="351.48 344.17 311.57 321.13 311.57 317.87 351.48 340.91 351.48 344.17" style="fill:#e0e0e0"></polygon><polygon points="351.48 351.33 311.57 328.29 311.57 325.04 351.48 348.08 351.48 351.33" style="fill:#e0e0e0"></polygon><path d="M408.15,379.77c-.12.64-.68.5-1.08.05a7.14,7.14,0,0,1-.94-1.71,36.8,36.8,0,0,1-1.28-3.47,33.91,33.91,0,0,1-1.28-6.14c0-.45-.08-.89-.13-1.34-.09-.75-.95-1.37-.89-.53,0,.47.08.94.13,1.42a27,27,0,0,1-.08,5.34,10.94,10.94,0,0,1-1.51,5c-.36.46-.86.85-1.45.62s-1.28-1.45-1.71-2.48a33,33,0,0,1-1.28-3.7,6.27,6.27,0,0,0,.37-.68,23.55,23.55,0,0,0,1.71-7.23c.22-2.15.47-5.26-1.11-7.45-3.35-4.64-3.28,6.16-3,8.92a38.55,38.55,0,0,0,1.07,5.8,2.49,2.49,0,0,1-.55.53c-.54.35-1.18.33-1.84-.43a4.06,4.06,0,0,1-1-2.34l.06-.62c0-.55-.7-1.32-.8-.78,0,.05,0,.09,0,.14h0c0,.17,0,.34-.05.51a20.12,20.12,0,0,1-.76-2.76c-.09-.49-.66-1.06-.81-.65l-.9,2.51a12.56,12.56,0,0,1-.28-4.43c.08-.64-.75-1.47-.9-.9a9.37,9.37,0,0,1-1.37,3.37,1.46,1.46,0,0,1-2.37-.05l-.11-.13c.26-.38.51-.79.74-1.21a6.28,6.28,0,0,0,1.19-4.43c-.32-1.79-1.55-3.15-2.38-2.48-1.29,1-2,4.61-.82,7.52-1,1.26-2.31,2.06-3.92,1.51s-3.4-2.5-4.1-5.36a12.84,12.84,0,0,1-.38-3.36,8.85,8.85,0,0,0,2.39.73,5.12,5.12,0,0,0,5.55-2.83,5.34,5.34,0,0,0,.31-4.66,4.53,4.53,0,0,0-3-3c-2.24-.4-4.15,1.52-5.2,4a13.53,13.53,0,0,0-1,4.12,26.82,26.82,0,0,1-5.06-3.54c-.47-.4-.53.46-.1.87a28.09,28.09,0,0,0,5.11,3.87,14.62,14.62,0,0,0,.64,4.53c1.07,3.53,3.46,5.79,5.46,6.24,1.64.37,3-.44,4-1.73,1,1.32,2.21,1.69,3.1,1.25a3.17,3.17,0,0,0,1.31-1.58,17.58,17.58,0,0,0,.84,3.38c.15.44.65.82.78.45l.85-2.43a21.19,21.19,0,0,0,1.14,3.09c.12.24.39.47.56.44a5.85,5.85,0,0,0,1.67,2.26,1.65,1.65,0,0,0,2.39-.17c.07.22.12.44.19.65.76,2.3,1.89,5.36,3.51,6,1.82.77,2.79-1.74,3.29-3.81a22.51,22.51,0,0,0,.51-3.45c.29,1.12.63,2.24,1,3.34a16.26,16.26,0,0,0,2,4.25c.8,1,1.77,1.21,2,0C408.75,380.14,408.23,379.33,408.15,379.77Zm-32.94-26c.82-2.09,2.23-3.57,3.92-3.83.83-.13,2,.18,2.65,1.88a4,4,0,0,1-.66,3.71c-1.65,2.5-4.1,2.6-6.71,1.54A13,13,0,0,1,375.21,353.81Zm8.52,6.26c.18-.34.56-1.14,1-.64a2.79,2.79,0,0,1,.16,2.29,13.1,13.1,0,0,1-1.56,3.06A7.25,7.25,0,0,1,383.73,360.07ZM396,370.3a26.35,26.35,0,0,1-.09-11.72c.21-.76.61-1.32,1.28-.47a5.74,5.74,0,0,1,.85,3.31,26.78,26.78,0,0,1-.73,6.48,17.19,17.19,0,0,1-1.07,3.41C396.17,371,396.08,370.64,396,370.3Z" style="fill:#455a64"></path><g id="freepik--clip--inject-5"><path d="M303.89,86.37s1.43,5.54,1.92,8.51c0,0,0,0,0,0s0,0,0,0a1.92,1.92,0,0,0,.78,1.2l85.91,49.55,1.6.91s0,0,0,0h0a.12.12,0,0,0,.13,0c.13-.08.19-.28.14-.56,0,0,0,0,0-.06-1.5-8.11-3.71-14.66-11.52-21.16l-12.49-9.36s-3.34-3.15-3.91-6.42l-.78-4.38-1.45-8.56s-.21-2.52-3.32-5.56-8.46-11.23-9.4-16.56c-1.49-8.46-7.6-17.88-13.66-21.05a8,8,0,0,0-3.65-1,4.23,4.23,0,0,0-2.19.56l-3.86,2.21-.17.1h0c0,.5-.74,16.74-3.26,16.8a2.74,2.74,0,0,0-.43,0,1.72,1.72,0,0,0-.65.23l-3.89,2.25-.09.05,5.19,11.47c.58,3.26-1.3,3.58-2.23,3.2l-1.73-.69c-2.39-1-4.39-1.93-9-4a4.31,4.31,0,0,0-4-.11l-4,2.29ZM333.73,60a3.23,3.23,0,0,1,1.65-2.25c.89-.41,11.84,18.37,10.64,19.32a2.93,2.93,0,0,1-2.81.36c-.63,2.36-2.5,3.2-5.07,1.85-3.73-2-7.48-7.75-8.4-12.94C328.92,61.68,330.66,59.08,333.73,60Z" style="fill:#455a64"></path><path d="M382,134l6.26-3.61c3.64,4.78,5.09,9.81,6.17,15.64,0,0,0,.05,0,.06,0,.28,0,.48-.14.56a.12.12,0,0,1-.13,0h0s0,0,0,0h0l-4.94-3.91Z" style="fill:#37474f;opacity:0.5"></path><path d="M366.89,110.46l-8.82,5.09-3-17.9L363,93.06a7.56,7.56,0,0,1,1.25,3l1.45,8.56.78,4.38A7.38,7.38,0,0,0,366.89,110.46Z" style="fill:#37474f;opacity:0.5"></path><path d="M347.34,63a34.33,34.33,0,0,1,4.19,11,27.32,27.32,0,0,0,3.12,7.8l-7.57,4.37-3.77-8.69a2.91,2.91,0,0,0,2.71-.38c.62-.49-2-5.69-4.76-10.57Z" style="fill:#37474f;opacity:0.5"></path><path d="M301.47,92.07s3.48,3.29,3.69,3.41,1.21.68,1.21.68l86.15,49.53,1.6.91h0c-.3-.3-5-3.93-5-3.93a30,30,0,0,0-10.27-15.54l-12.47-9.36s-3.36-3.16-3.93-6.43l-.77-4.37-1.45-8.57s-.21-2.51-3.32-5.55-8.46-11.23-9.41-16.57c-1.49-8.45-7.6-17.87-13.65-21.05-2.29-1.2-4.26-1.33-5.72-.56l-.17.11c-2.27,1.33-3.26,4.91-2.36,10a8.93,8.93,0,0,1-1.33,6.81,4.87,4.87,0,0,1-3.55,2.27,2.39,2.39,0,0,0-1,.21l-.09.05c-1.25.71-.76,2.58-.76,2.58l1.19,6.82.78,4.37c0,.07,0,.14,0,.21.48,3.07-1.34,3.36-2.24,3-3.37-1.34-5.08-2.16-10.76-4.66a4.31,4.31,0,0,0-4-.13l-.06,0C302.44,87.23,301.62,89.24,301.47,92.07ZM333.73,60a6.13,6.13,0,0,1,1.08.46c3.73,1.94,7.49,7.74,8.41,12.94a10,10,0,0,1,0,4c-.63,2.36-2.5,3.2-5.07,1.85-3.73-2-7.48-7.75-8.4-12.94C328.92,61.68,330.66,59.08,333.73,60Z" style="fill:#37474f"></path><path d="M329.74,66.35c.92,5.19,4.67,11,8.4,12.94,2.57,1.35,4.44.51,5.07-1.85a7.9,7.9,0,0,1-1.09-.45c-3.73-1.95-7.48-7.75-8.4-12.95a9.82,9.82,0,0,1,0-4C330.66,59.08,328.92,61.68,329.74,66.35Z" style="fill:#263238"></path><path d="M333.34,60.23l.34,0a6.16,6.16,0,0,1,1,.44c3.65,1.9,7.37,7.63,8.28,12.76a9.74,9.74,0,0,1,0,3.89,3.84,3.84,0,0,1-2.6,1.66c-1.6,0-7.37-5.83-8.27-8.32-.63-1.79-2.11-7.39-.57-9.58a2.05,2.05,0,0,1,1.8-.87h0m0-.24c-4.4,0-2.37,8.22-1.46,10.77s6.75,8.49,8.47,8.49h0a4.17,4.17,0,0,0,2.82-1.81,10,10,0,0,0,0-4c-.92-5.2-4.68-11-8.41-12.94a6.13,6.13,0,0,0-1.08-.46,2.61,2.61,0,0,0-.39,0Z" style="fill:#263238"></path><path d="M394.13,146.61,306.37,96.16l-1.21-.67c-.21-.13-3.68-3.42-3.68-3.42l87.68,50.61S394.48,146.79,394.13,146.61Z" style="fill:#263238"></path></g></g></g><g id="freepik--Character--inject-5"><g id="freepik--character--inject-5"><path d="M138.55,118.36c11,2.22,15,5.41,21.17,15.72,4.56,7.62,7.32,12.56,14.75,23.3l23.23,2.52L193,176.68s-14.31.45-22.41,1.09c-6.06.48-7.45,0-11.22-4.54-7.8-9.37-17.17-22.71-17.17-22.71Z" style="fill:#e0e0e0"></path><path d="M138.55,118.36c11,2.22,15,5.41,21.17,15.72,4.56,7.62,7.32,12.56,14.75,23.3l23.23,2.52L193,176.68s-14.31.45-22.41,1.09c-6.06.48-7.45,0-11.22-4.54-7.8-9.37-17.17-22.71-17.17-22.71Z" style="opacity:0.02"></path><path d="M160.42,187.52l3.18,93s-28.48-7-54-2.69S78,288.14,78,288.14L94.46,144.27l58.89,1.78S160.42,155.71,160.42,187.52Z" style="fill:#ebebeb"></path><g id="freepik--Bottom--inject-5"><path d="M83.13,434.33c-.27,5.91-1.31,8.95-3.9,12.14A11.94,11.94,0,0,1,67.14,450c-4.57-1.23-9.33-4.65-10.39-9.61s-.07-9.77,1-13.61Z" style="fill:#263238"></path><path d="M67.8,338.08c3.31-16.05,7-23.23,7.69-26.88,0,0,4.86-37.91,7.06-70.17,1.06-15.53.68-26,10.83-44l59,14.5c.72,8.27,6.27,64.56,3.54,113.1-2.24,39.84-5.16,52.84-5.46,59.49-.17,3.78-.09,6.28.07,11.53.07,2.12.25,3.86,1.48,5.2a36.7,36.7,0,0,0,6.69,5.3c4.59,3,6.7,4.67,11.95,6.54a12.38,12.38,0,0,1,2.92,1.3,3.27,3.27,0,0,1,1.57,2.54c0,1.42-1.3,2.54-2.62,3.24-4.75,2.52-10.69,2-15.88.5s-10-4-15.25-5.51c-3.62-1-7.45-1.51-10.77-3.2a5.38,5.38,0,0,1-2.59-2.31,5.5,5.5,0,0,1-.25-2.82c.4-4.16.84-5.47.73-9.66-.1-4-.71-11.33-1-15.31-.27-3.35-4.52-27.35-3.88-42.19a92.22,92.22,0,0,0-.47-13.6l-5.25-52.73c-2.4,8.81-11.29,34.33-14.06,46-3.4,14.24-5.23,31.47-12.3,57.54-2,7.34-5.68,16.19-6.59,20.63-.39,5.63-2.46,20.38-5.17,26.59-4.11,9.42-16.68,9.12-17.74.94-.89-6.95,3.79-25.14,4-29.7S64,356.78,67.8,338.08Z" style="fill:#c8856a"></path><path d="M64.15,400.23c-1,5.87-1.88,10.32-2.55,13.72-1.9,5.8-2.64,8.6-3.71,12.37-1.76,6.16-1.42,11.68.47,15,2.81,4.91,14.16,10,20.13,3.66,4.88-5.15,4.68-7.61,4.67-15.26,0-2.4,0-4.57,0-6.62.15-6.84.27-8.17,1.39-12.51.64-2.48,0-6.26.56-8.89.56-2.86.8-4.11-.17-4.56,0,0-.5,3.66-1.12,6.31-.57,2.43-1,4.88-1.57,7.31-.66,3-1.22,6-2.15,8.95-.1.32-.27.71-.63.75s-.72-.46-.74-.87a1.78,1.78,0,0,0-.47-1.35,6,6,0,0,0-1.62-.91,16.36,16.36,0,0,0-3.59-.87,17,17,0,0,0-5.32-.21,3.12,3.12,0,0,0-1.45.57c-.38.3-.51.72-.84,1a.79.79,0,0,1-1,.16.83.83,0,0,1-.23-.51,9.64,9.64,0,0,1-.06-2.08c.15-3.83.43-7.59,1-11.4a51.27,51.27,0,0,0,.91-9.07A11.13,11.13,0,0,0,64.15,400.23Z" style="fill:#37474f"></path><path d="M124.42,410.42l60.19,12.1a4,4,0,0,1-.47,3.88c-2.2,2.57-9.61,6-18.77,5s-14.15-4.76-17.53-7.11a25.56,25.56,0,0,0-5.67-3.19c-2.18-.9-5.39-.94-7.71-1.24a44.06,44.06,0,0,1-6.07-1.59,13,13,0,0,1-4-2,13.91,13.91,0,0,1-.27-3.16C124.15,412.32,124.28,411.19,124.42,410.42Z" style="fill:#263238"></path><path d="M138.27,405c-1.88-2-4.4-3.09-6.94-4.17-2.15-.93-2.74-1.78-2.81-4.07,0-.2-1.75-.07-2,.2a2.77,2.77,0,0,0-.75,2c-.15,1.72-.37,2.52-.67,4.3-.67,3.95-1.63,5.2-1,9.84,2.69,3.31,11,4.89,15.47,5.44,7,.86,12.59,6.48,17.84,8.16,9.64,3.08,19.09,1.43,22.75-.35,4.24-2.06,6.62-5.45,3.14-7.91-2.13-1.5-14.2-7.48-16.37-8.61-1.72-.91-3.36-2-5-2.94a3,3,0,0,0-.9-.39,2.86,2.86,0,0,0-1.16.12,33.84,33.84,0,0,0-6.17,2.05,2.76,2.76,0,0,0-1.63,1.4c-.37,1.18,2.08,3.26.6,3.64-1.33.35-3.61-1.32-4.66-1.86-3.46-1.79-7-3.81-9.54-6.69A.86.86,0,0,0,138.27,405Z" style="fill:#37474f"></path><path d="M152.28,194.11l.62,6c5.69,33.17,6.22,77.13,5.61,90.49-1.78,39.38-6.86,108.83-6.86,108.83s-1.57,3.86-12.77,4.75c-8.62.69-13.63-2.24-13.63-2.24s-4-47.08-4.63-58.45a112.66,112.66,0,0,1,.31-14.59,94.49,94.49,0,0,0-.22-18.19l-3-33.63s-11.16,46.58-12.24,52.25C100.08,357.77,87,410.49,87,410.49s-9.11,2.4-17.31.95-10.05-4.34-10.05-4.34,5.07-59.29,6.35-70.78c1.72-15.36,3.31-22.51,4.47-28.8,1.37-7.4,2-35.3,3-51.53.64-11.07,1.08-19.48,2.43-27.61,2.8-17,11.06-27.22,14.19-33.48l.49-3.35C99.83,199,134.94,203.6,152.28,194.11Z" style="fill:#455a64"></path><path d="M117.7,277.09l8.74-31.74s11.35-2.17,16.93-8.31c0,0-1.26,7.75-13,11.71l-8.26,27.73-1.55,32.6Z" style="fill:#37474f"></path></g><g id="freepik--Top--inject-5"><path id="freepik--Hair--inject-5" d="M96.3,61.66c-.23-10.25,19.73-21.46,38.46-9s11.93,24.49,10.63,28.15l1.27,49L83.21,131.3s3-44.17,2.83-51.38S86.36,61.89,96.3,61.66Z" style="fill:#263238"></path><g id="freepik--Chest--inject-5"><path d="M104.53,115.43l-15.39,4.1c-3.07,1,.39,19.13-.47,39.83C87.8,180.61,81.76,215,81.76,215s14.41,6,40.25,5.59c25.51-.42,33.13-8.38,33.13-8.38l-3.43-25.1L150,167.36s9.17-12.84,4.07-25.46-22.71-29-22.71-29l-7.91.39Z" style="fill:#FF6134"></path><path d="M104.53,115.43l-15.39,4.1c-3.07,1,.39,19.13-.47,39.83C87.8,180.61,81.76,215,81.76,215s14.41,6,40.25,5.59c25.51-.42,33.13-8.38,33.13-8.38l-3.43-25.1L150,167.36s9.17-12.84,4.07-25.46-22.71-29-22.71-29l-7.91.39Z" style="fill:#fff;opacity:0.7000000000000001"></path><path d="M103,165.82a17.13,17.13,0,0,0,15.09,7.43A17,17,0,0,0,131.64,165s-1.77,10.65-14.54,10.89S103,165.82,103,165.82Z" style="fill:#FF6134;opacity:0.30000000000000004"></path></g><path d="M122.83,113.91c6.36,5.31,16.26,12.45,22.13,20.12,11.86,15.52,14.44,29.8,15.38,47.84.19-27,3.49-42.15-29-70-5.8-5-8.1-6.08-8.1-6.08Z" style="fill:#e0e0e0"></path><path d="M101.44,110.35c.47,6.67,7.5,23.38,8.15,41.58s-9.41,136.42-9.41,136.42-19.27,2.44-33.46-5.64c0,0,5-42.89,16-90.55,2.83-12.36-2.34-27.69-3.38-44.35a70.31,70.31,0,0,1,3.47-26.74s10.32-3.45,13.47-5.28A16.62,16.62,0,0,0,101.44,110.35Z" style="fill:#f0f0f0"></path><path d="M100.67,113.58c.45,2.15,1.17,4.75,2,7.76,2.21,8.07,5.25,19.11,5.66,30.64.6,17-8.32,123.48-9.31,135.22-1.14.1-3.16.24-5.73.24-7,0-16.91-1-25.22-5.43.77-6.23,5.89-46.15,15.84-89.57,1.85-8.08.39-17.35-1.16-27.16-.89-5.66-1.82-11.51-2.19-17.54a70.72,70.72,0,0,1,3.2-25.67c2.26-.77,10.3-3.55,13.12-5.19a15.06,15.06,0,0,0,3.79-3.3m.77-3.23a16.62,16.62,0,0,1-5.2,5.44c-3.15,1.83-13.47,5.28-13.47,5.28a70.31,70.31,0,0,0-3.47,26.74c1,16.66,6.21,32,3.38,44.35-10.92,47.66-16,90.55-16,90.55,8.85,5,19.67,6,26.57,6a59.9,59.9,0,0,0,6.89-.35s10-118.21,9.41-136.42-7.68-34.91-8.15-41.58Z" style="fill:#ebebeb"></path><path d="M135.37,64.83c1.88,1.41,4.36,5.81,4,13.22-.19,2.24,1.25,4.58,1.34,8.76.36,15.81-2.4,18.66-6.64,20.62a22.41,22.41,0,0,1-9.55,2l.5,7.64c2.72,4.49,2.63,7,2.18,12.81-14.16-4.06-25.14-13.76-25.15-13.79l-.53-17.84s-1.34-.37-1.34-.36a5.65,5.65,0,0,1-7,0c-3.22-2.36-5.41-8.29-2.65-11.69s7.81-2.09,9.66.83,6.26,2,4.83-2.47c2-1,4.48-3.11,2.45-11.33-.46-2.11.23-5.77,2.2-7.59,3.28-3,9.8-2.51,13.56,1.11C128.27,62.51,131.48,61.92,135.37,64.83Z" style="fill:#c8856a"></path><path d="M135,73.55l-5.2-1a2.54,2.54,0,0,1,3-2.14A2.79,2.79,0,0,1,135,73.55Z" style="fill:#263238"></path><path d="M111.71,76l5-1.87a2.54,2.54,0,0,0-3.33-1.59A2.77,2.77,0,0,0,111.71,76Z" style="fill:#263238"></path><path d="M118.51,93.92l7.4,2.3a3.71,3.71,0,0,1-4.72,2.62A4.08,4.08,0,0,1,118.51,93.92Z" style="fill:#af6152"></path><path d="M122.89,99a3.46,3.46,0,0,0-3.58-3.31,2.83,2.83,0,0,0-.83.14,4,4,0,0,0,2.71,3.06A3.66,3.66,0,0,0,122.89,99Z" style="fill:#ffa8a7"></path><polygon points="123.12 77.62 124.63 91.69 131.6 89.57 123.12 77.62" style="fill:#af6152"></polygon><path d="M124.57,109.4c-5.08-.17-16.54-2.93-19.33-9.61,0,0,.5,4.8,6.81,8.38,5,2.83,12.67,3.44,12.67,3.44Z" style="fill:#af6152"></path><path d="M118.88,81.24a2.24,2.24,0,1,1-2.12-2.37A2.25,2.25,0,0,1,118.88,81.24Z" style="fill:#263238"></path><path d="M135.49,80.19a2.25,2.25,0,1,1-1.78-2.63A2.24,2.24,0,0,1,135.49,80.19Z" style="fill:#263238"></path><path d="M92,117.66c2.54-1.13,5.42-4.31,6.91-6.08s2-3,3-3l0,3.19s8.08,18.33,8,34.38h0c.18,11-1,23.93-1,23.93-3.31-7.78-11-20.58-11-20.58l4.2-10.07C99.59,129.47,93.84,123,92,117.66Z" style="fill:#e0e0e0"></path><g id="freepik--Pen--inject-5"><path d="M103.4,172.75a.86.86,0,1,0-.86,1.5h0l.75.43a.4.4,0,0,0,.43,0,1.35,1.35,0,0,0,.61-1.06.45.45,0,0,0-.18-.4l-.75-.43Z" style="fill:#455a64"></path><path d="M104.33,173.58a.45.45,0,0,0-.18-.4l-.75-.43h0a.84.84,0,0,0-.84,0h0c.23-.09.59.12,1,.36s.62.55.29,1.18c-.24.46-.52.41-.65.35l.08.05a.4.4,0,0,0,.43,0A1.35,1.35,0,0,0,104.33,173.58Z" style="fill:#37474f"></path><path d="M107,172.7a2.69,2.69,0,1,0-2.69,4.65h0a1.33,1.33,0,0,0,1.34-.14,4.17,4.17,0,0,0,1.9-3.28,1.34,1.34,0,0,0-.55-1.23Z" style="fill:#FF6134"></path><path d="M105.61,172.83a4.19,4.19,0,0,0-1.9,3.29,1.35,1.35,0,0,0,.55,1.23l16.59,9.58a1.33,1.33,0,0,0,1.34-.13,4.19,4.19,0,0,0,1.9-3.29,1.35,1.35,0,0,0-.55-1.23L107,172.7A1.33,1.33,0,0,0,105.61,172.83Z" style="fill:#FF6134"></path><path d="M105.61,172.83a4.19,4.19,0,0,0-1.9,3.29,1.35,1.35,0,0,0,.55,1.23l16.59,9.58a1.33,1.33,0,0,0,1.34-.13,4.19,4.19,0,0,0,1.9-3.29,1.35,1.35,0,0,0-.55-1.23L107,172.7A1.33,1.33,0,0,0,105.61,172.83Z" style="fill:#fff;opacity:0.2"></path><path d="M125.13,184.05a4.29,4.29,0,0,1-1.95,3.38,1.39,1.39,0,0,1-1.38.14l-1.28-.74a1.37,1.37,0,0,1-.57-1.26,4.32,4.32,0,0,1,2-3.38,1.39,1.39,0,0,1,1.38-.14l1.28.74A1.37,1.37,0,0,1,125.13,184.05Z" style="fill:#FF6134"></path><path d="M125.13,184.05a4.29,4.29,0,0,1-1.95,3.38,1.39,1.39,0,0,1-1.38.14l-1.28-.74a1.37,1.37,0,0,1-.57-1.26,4.32,4.32,0,0,1,2-3.38,1.39,1.39,0,0,1,1.38-.14l1.28.74A1.37,1.37,0,0,1,125.13,184.05Z" style="fill:#fff;opacity:0.35000000000000003"></path><path d="M121.23,186.3a4.32,4.32,0,0,1,2-3.38,1.19,1.19,0,0,1,1.95,1.13,4.29,4.29,0,0,1-1.95,3.38,1.39,1.39,0,0,1-1.38.14A1.37,1.37,0,0,1,121.23,186.3Z" style="fill:#FF6134"></path><path d="M121.23,186.3a4.32,4.32,0,0,1,2-3.38,1.19,1.19,0,0,1,1.95,1.13,4.29,4.29,0,0,1-1.95,3.38,1.39,1.39,0,0,1-1.38.14A1.37,1.37,0,0,1,121.23,186.3Z" style="opacity:0.15"></path><path d="M137.24,196.06a1.17,1.17,0,0,1-.5-1.09,3.75,3.75,0,0,1,1.69-2.93,1.21,1.21,0,0,1,1.2-.12h0l.62.6h0a1.22,1.22,0,0,1,.32.91,3.46,3.46,0,0,1-1.56,2.7,1.21,1.21,0,0,1-.94.17h0Z" style="fill:#FF6134"></path><g style="opacity:0.15"><path d="M137.24,196.06a1.17,1.17,0,0,1-.5-1.09,3.75,3.75,0,0,1,1.69-2.93,1.21,1.21,0,0,1,1.2-.12h0l.62.6h0a1.22,1.22,0,0,1,.32.91,3.46,3.46,0,0,1-1.56,2.7,1.21,1.21,0,0,1-.94.17h0Z"></path></g><path d="M136.74,195a3.75,3.75,0,0,1,1.69-2.93,1.21,1.21,0,0,1,1.2-.12l-15-8.64a1.18,1.18,0,0,0-1.2.11,3.75,3.75,0,0,0-1.69,2.93,1.21,1.21,0,0,0,.49,1.1l15,8.64h0A1.17,1.17,0,0,1,136.74,195Z" style="fill:#FF6134"></path><path d="M140.31,192.6a1.05,1.05,0,0,0-1.08.1,3.35,3.35,0,0,0-1.51,2.63,1.06,1.06,0,0,0,.44,1h0c1,.55,3.85,1.6,5.27,1.43v0a.51.51,0,0,0,.22-.07,1.25,1.25,0,0,0,.56-1,.46.46,0,0,0,0-.21h0C143.63,195.13,141.25,193.15,140.31,192.6Z" style="fill:#FF6134"></path><path d="M123.47,183.39a2.74,2.74,0,0,0-.48.36l15,8.65a3.75,3.75,0,0,1,.48-.36l.09,0-15-8.64Zm-1-1.44-.15,0-14.76-8.53c-1.93-1.12-2.73-1.09-3.51-.64.77-.28,2.53.75,2.76.88l14.89,8.6.18-.11,1.28.73a2.49,2.49,0,0,1,.59-.23Zm21.64,15.15-.23-.46s0-.35-.92-1.34a15.77,15.77,0,0,0-3.75-2.6,2.47,2.47,0,0,0-.55.44,21.46,21.46,0,0,1,4,2.59,8.66,8.66,0,0,1,1.36,1.45S144.12,197.13,144.13,197.1Z" style="fill:#fff;opacity:0.2"></path><path d="M143.49,197.36l.62.36c.27.15,1,.4,1.15.18s-.47-.75-.74-.91h0l-.62-.35s-.15,0-.32.29S143.49,197.36,143.49,197.36Z" style="fill:#455a64"></path><path d="M145.2,197.63a.29.29,0,0,0-.18.13.31.31,0,0,0,0,.23c.13,0,.23,0,.27-.09S145.27,197.74,145.2,197.63Z" style="fill:#263238"></path></g><path d="M62.48,191.51c-.33-6.09,1-23.15,2.37-39.16,1.9-22,5.9-25.12,17.31-29.44,9.44,5.13,11.26,14.94,7.74,37l-3,25.66c6.13,1.3,14.46,3,21.49,1a10.21,10.21,0,0,0,3.89-2.1,7.23,7.23,0,0,1,2.27-1.19l1.51.89c1,.09,2.07.25,3.06.29,2.28.09,5.48,0,7.77.13,5,.3,8.75.6,13.31,2.59.86.38,1.94,1.05,3,1.67.82.46,0,1.39-.51,1.71a5.62,5.62,0,0,1-2.1.78,11.62,11.62,0,0,1-3-.08,1.4,1.4,0,0,0-.79.1,1,1,0,0,0-.41.64,6.48,6.48,0,0,0-.06.76,4.16,4.16,0,0,1-1.88,3.17c-.45.28-.94.47-1.4.74a4.72,4.72,0,0,0-1.36,1.42c-.5.65-1,1.33-1.5,2-1.77,2.18-2.56,2.3-6.25,3.21s-6.36-.37-11.6,0-24.11,3.43-32.63,3.67C63.85,207.32,63.07,202.45,62.48,191.51Z" style="fill:#c8856a"></path><path d="M86.86,185.55c-6.39-1.19-13.23-.92-17.25,2,6.59-7.06,17.51-4.15,17.51-4.15Z" style="fill:#f28f8f"></path><path d="M82.77,121.07c-8.19,2.25-15.22,6.88-17,14.87S62,167.38,61.64,179.23s0,21.51,2.4,24.43,4.95,4.06,11.66,4.05,20.62-1.41,20.62-1.41S93.77,194,98.08,187.36l-9.92-2.18s3.52-29.58,4.32-36.61S93,129.05,82.77,121.07Z" style="fill:#e0e0e0"></path><g id="freepik--Carpet--inject-5"><polygon points="222.25 135.63 170.1 147.74 149.63 205.91 150.62 207.22 200.31 194.73 223.24 136.95 222.25 135.63" style="fill:#FF6134"></polygon><polygon points="171.09 149.06 150.62 207.22 149.63 205.91 170.1 147.74 171.09 149.06" style="opacity:0.35000000000000003"></polygon><polygon points="223.24 136.95 171.09 149.06 150.62 207.22 200.31 194.73 223.24 136.95" style="opacity:0.25"></polygon><g style="opacity:0.1"><path d="M206.76,147.5s.28-.88.64-2-2.66-.83-6.73.56l-9.36,1.74c-4.06,1.39-7.86,2.34-8.21,3.42l-.64,2Z"></path></g><path d="M210.75,138.77c.22-.67-.94-.66-2.59-.41l-3,.66s1.5-2.77-5.54-1.68c-7.75,1.2-8.33,4.94-8.33,4.94a35.06,35.06,0,0,1-3.77.91c-2.58.54-2.92,1-3.2,1.67l-.51,1.23,26.58-6.16S210.53,139.45,210.75,138.77Z" style="fill:#37474f"></path><path d="M207.63,142.31c-2.48.81-3.53,1.23-4.07,2.89-.62,1.91-.8,2.71-.8,2.71l-13.9,3.77s1-2.79,1.32-3.72-1.47-1.15-3.9-.34l.82-2.32,21.56-5.4Z" style="fill:#37474f"></path><path d="M207.44,147.61l.64-2c.35-1.08-2.66-.83-6.72.56L192,148c-4.07,1.39-7.87,2.34-8.22,3.42l-.64,1.95Z" style="fill:#37474f"></path><path d="M215.91,163.7c1.78-2,1.67-2.26,1-3.45a6.79,6.79,0,0,0-5.15-3.45c-1.88-.16-3.78-.42-4.81,0s-.44,2.53,2,3.37c3.75,1.31,3.61,2.36,3.61,2.36A50.26,50.26,0,0,0,207.6,161c-1.42-.25-4.11.13-5.77.19s-2.23,2.13.45,3.18l-3,.13c-2.13.09-3,1.11-1.48,2.6a3.08,3.08,0,0,0,1.81.93s-2.23-.26-2.36.47c-.38,2.11.93,2.83,5.27,4.66,3.42,1.44,4.67,3.43,4.42,4.92l-.34.86s1.48-.93,3.14-1.81c1.22-.65,2.28-1.41,2-3.23,0,0,2.44.33,2.77-1.16a7.83,7.83,0,0,0-.21-3.32,2.68,2.68,0,0,0,1.64-2.35,4.33,4.33,0,0,0-.58-2.77Z" style="fill:#c8856a"></path><path d="M202.28,164.4a14,14,0,0,1,2.74,0,9.13,9.13,0,0,1,2.53,1.14,32.84,32.84,0,0,1,4.43,3.09,31,31,0,0,1-4.83-2.4,14.58,14.58,0,0,0-2.28-1.23C204.08,164.8,203.14,164.67,202.28,164.4Z" style="fill:#af6152"></path><path d="M199.57,168.06a5.9,5.9,0,0,1,2.94.26,15.14,15.14,0,0,1,2.69,1.21,27.47,27.47,0,0,1,4.78,3.33c-1.8-.77-3.48-1.71-5.17-2.64A15.35,15.35,0,0,0,199.57,168.06Z" style="fill:#af6152"></path></g></g></g></g></svg>